<svg xmlns="http://www.w3.org/2000/svg" xmlns:xlink="http://www.w3.org/1999/xlink" xmlns:lucid="lucid" width="2580" height="629.12"><g transform="translate(-460 -340)" lucid:page-tab-id="0_0"><path d="M1955.33 368c0-4.42 3.58-8 8-8h144c4.42 0 8 3.58 8 8v84c0 4.42-3.58 8-8 8h-144c-4.42 0-8-3.58-8-8z" stroke="#fff" fill="#5e5e5e"/><use xlink:href="#a" transform="matrix(1,0,0,1,1960.327208958413,365) translate(19.625 48.6)"/><use xlink:href="#b" transform="matrix(1,0,0,1,1960.327208958413,365) translate(74.475 48.6)"/><path d="M990 520.6c0-4.42 3.58-8 8-8h144c4.42 0 8 3.58 8 8v71.72c0 4.42-3.58 8-8 8H998c-4.42 0-8-3.58-8-8z" stroke="#333" fill="#ef8d22"/><use xlink:href="#c" transform="matrix(1,0,0,1,995,517.6000000000003) translate(18.64999999999999 31.799999999999997)"/><use xlink:href="#d" transform="matrix(1,0,0,1,995,517.6000000000003) translate(25.14999999999999 53.4)"/><use xlink:href="#e" transform="matrix(1,0,0,1,995,517.6000000000003) translate(79.94999999999999 53.4)"/><path d="M1480 520.6c0-4.42 3.58-8 8-8h144c4.42 0 8 3.58 8 8v71.72c0 4.42-3.58 8-8 8h-144c-4.42 0-8-3.58-8-8z" stroke="#333" fill="#7ab648"/><use xlink:href="#f" transform="matrix(1,0,0,1,1485,517.6000000000003) translate(26.599999999999994 42.6)"/><use xlink:href="#g" transform="matrix(1,0,0,1,1485,517.6000000000003) translate(75.5 42.6)"/><path d="M2440 520.6c0-4.42 3.58-8 8-8h144c4.42 0 8 3.58 8 8v71.72c0 4.42-3.58 8-8 8h-144c-4.42 0-8-3.58-8-8z" stroke="#333" fill="#3aa6dd"/><use xlink:href="#h" transform="matrix(1,0,0,1,2445,517.6000000000003) translate(12.174999999999997 42.6)"/><use xlink:href="#i" transform="matrix(1,0,0,1,2445,517.6000000000003) translate(57.025 42.6)"/><use xlink:href="#j" transform="matrix(1,0,0,1,2445,517.6000000000003) translate(109.875 42.6)"/><path d="M630 657.16c0-4.4 3.58-8 8-8h144c4.42 0 8 3.6 8 8v71.72c0 4.42-3.58 8-8 8H638c-4.42 0-8-3.58-8-8z" stroke="#333" fill="#ffc374"/><use xlink:href="#k" transform="matrix(1,0,0,1,635,654.1639138175574) translate(52.55 42.6)"/><path d="M810 657.16c0-4.4 3.58-8 8-8h144c4.42 0 8 3.6 8 8v71.72c0 4.42-3.58 8-8 8H818c-4.42 0-8-3.58-8-8z" stroke="#333" fill="#ffc374"/><use xlink:href="#l" transform="matrix(1,0,0,1,815,654.1639138175574) translate(33.025 42.6)"/><path d="M990 657.16c0-4.4 3.58-8 8-8h144c4.42 0 8 3.6 8 8v71.72c0 4.42-3.58 8-8 8H998c-4.42 0-8-3.58-8-8z" stroke="#333" fill="#ffc374"/><use xlink:href="#m" transform="matrix(1,0,0,1,995,654.1639138175574) translate(52.425 42.6)"/><path d="M480 797.16c0-4.4 3.58-8 8-8h124c4.42 0 8 3.6 8 8v51.72c0 4.42-3.58 8-8 8H488c-4.42 0-8-3.58-8-8z" stroke="#333" fill="#ffdba9"/><use xlink:href="#n" transform="matrix(1,0,0,1,485,794.1639138175573) translate(49.025 32.6)"/><path d="M640 797.16c0-4.4 3.58-8 8-8h124c4.42 0 8 3.6 8 8v51.72c0 4.42-3.58 8-8 8H648c-4.42 0-8-3.58-8-8z" stroke="#333" fill="#ffdba9"/><use xlink:href="#o" transform="matrix(1,0,0,1,645,794.1639138175573) translate(45.4 32.6)"/><path d="M800 797.16c0-4.4 3.58-8 8-8h124c4.42 0 8 3.6 8 8v51.72c0 4.42-3.58 8-8 8H808c-4.42 0-8-3.58-8-8z" stroke="#333" fill="#ffdba9"/><use xlink:href="#p" transform="matrix(1,0,0,1,805,794.1639138175573) translate(30.549999999999997 32.6)"/><use xlink:href="#q" transform="matrix(1,0,0,1,805,794.1639138175573) translate(62.5 32.6)"/><use xlink:href="#r" transform="matrix(1,0,0,1,805,794.1639138175573) translate(72.5 32.6)"/><path d="M710 738.38v49.28" stroke="#333" stroke-width="2" fill="none"/><path d="M711 738.4h-2v-1.02h2zM711 788.66h-2v-1.02h2z" fill="#333"/><path d="M710 738.38v12.64c0 6.63-5.37 12-12 12H562c-6.63 0-12 5.38-12 12v12.64" stroke="#333" stroke-width="2" fill="none"/><path d="M711 738.4h-2v-1.02h2zM551 788.66h-2v-1.02h2z" fill="#333"/><path d="M710 738.38v12.64c0 6.63 5.37 12 12 12h136c6.63 0 12 5.38 12 12v12.64" stroke="#333" stroke-width="2" fill="none"/><path d="M711 738.4h-2v-1.02h2zM871 788.66h-2v-1.02h2z" fill="#333"/><path d="M1070 601.82v10.92c0 6.63-5.37 12-12 12H722c-6.63 0-12 5.37-12 12v10.92" stroke="#333" stroke-width="2" fill="none"/><path d="M1071 601.84h-2v-1.02h2zM711 648.66h-2v-1.02h2z" fill="#333"/><path d="M1070 601.82v10.92c0 6.63-5.37 12-12 12H902c-6.63 0-12 5.37-12 12v10.92" stroke="#333" stroke-width="2" fill="none"/><path d="M1071 601.84h-2v-1.02h2zM891 648.66h-2v-1.02h2z" fill="#333"/><path d="M1070 601.82v45.84" stroke="#333" stroke-width="2" fill="none"/><path d="M1071 601.84h-2v-1.02h2zM1071 648.66h-2v-1.02h2z" fill="#333"/><path d="M2035.33 461.5v12.8c0 6.63-5.38 12-12 12H1082c-6.63 0-12 5.37-12 12v12.8" stroke="#333" stroke-width="2" fill="none"/><path d="M2036.33 461.53h-2v-1.03h2zM1071 512.1h-2v-1.03h2z" fill="#333"/><path d="M2035.33 461.5v12.8c0 6.63-5.38 12-12 12H1572c-6.63 0-12 5.37-12 12v12.8" stroke="#333" stroke-width="2" fill="none"/><path d="M2036.33 461.53h-2v-1.03h2zM1561 512.1h-2v-1.03h2z" fill="#333"/><path d="M2035.33 461.5v12.8c0 6.63 5.37 12 12 12H2508c6.63 0 12 5.37 12 12v12.8" stroke="#333" stroke-width="2" fill="none"/><path d="M2036.33 461.53h-2v-1.03h2zM2521 512.1h-2v-1.03h2z" fill="#333"/><path d="M1655 660.6c0-4.42 3.58-8 8-8h144c4.42 0 8 3.58 8 8v71.72c0 4.42-3.58 8-8 8h-144c-4.42 0-8-3.58-8-8z" stroke="#333" fill="#a3d977"/><use xlink:href="#s" transform="matrix(1,0,0,1,1660,657.6000000000001) translate(51.025 42.6)"/><path d="M1310 658.88c0-4.42 3.58-8 8-8h144c4.42 0 8 3.58 8 8v71.72c0 4.42-3.58 8-8 8h-144c-4.42 0-8-3.58-8-8z" stroke="#333" fill="#a3d977"/><use xlink:href="#t" transform="matrix(1,0,0,1,1315,655.8819569087788) translate(42.074999999999996 42.6)"/><use xlink:href="#u" transform="matrix(1,0,0,1,1315,655.8819569087788) translate(79.975 42.6)"/><path d="M1560 601.82v11.78c0 6.63-5.37 12-12 12h-146c-6.63 0-12 5.37-12 12v11.78" stroke="#333" stroke-width="2" fill="none"/><path d="M1561 601.84h-2v-1.02h2zM1391 650.38h-2v-1.02h2z" fill="#333"/><path d="M1560 601.82v12.64c0 6.63 5.37 12 12 12h151c6.63 0 12 5.37 12 12v12.64" stroke="#333" stroke-width="2" fill="none"/><path d="M1561 601.84h-2v-1.02h2zM1736 652.1h-2v-1.03h2z" fill="#333"/><path d="M1160 793.73c0-4.42 3.58-8 8-8h124c4.42 0 8 3.58 8 8v51.72c0 4.4-3.58 8-8 8h-124c-4.42 0-8-3.6-8-8z" stroke="#333" fill="#c7e8ac"/><use xlink:href="#v" transform="matrix(1,0,0,1,1165,790.7278276351145) translate(49 32.6)"/><path d="M1390 740.1v10.06c0 6.63-5.37 12-12 12h-136c-6.63 0-12 5.38-12 12v10.07" stroke="#333" stroke-width="2" fill="none"/><path d="M1391 740.13h-2v-1.03h2zM1231 785.23h-2v-1.03h2z" fill="#333"/><path d="M1320 795.45c0-4.42 3.58-8 8-8h124c4.42 0 8 3.58 8 8v51.7c0 4.43-3.58 8-8 8h-124c-4.42 0-8-3.57-8-8z" stroke="#333" fill="#c7e8ac"/><use xlink:href="#w" transform="matrix(1,0,0,1,1325,792.4458707263359) translate(39.05 32.6)"/><path d="M1390 740.1v45.85" stroke="#333" stroke-width="2" fill="none"/><path d="M1391 740.13h-2v-1.03h2zM1391 786.95h-2v-1.03h2z" fill="#333"/><path d="M1665 795.45c0-4.42 3.58-8 8-8h124c4.42 0 8 3.58 8 8v51.7c0 4.43-3.58 8-8 8h-124c-4.42 0-8-3.57-8-8z" stroke="#333" fill="#c7e8ac"/><use xlink:href="#x" transform="matrix(1,0,0,1,1670,792.4458707263359) translate(12.049999999999997 32.6)"/><use xlink:href="#y" transform="matrix(1,0,0,1,1670,792.4458707263359) translate(49.05 32.6)"/><path d="M1480 793.73c0-4.42 3.58-8 8-8h124c4.42 0 8 3.58 8 8v51.72c0 4.4-3.58 8-8 8h-124c-4.42 0-8-3.6-8-8z" stroke="#333" fill="#c7e8ac"/><use xlink:href="#z" transform="matrix(1,0,0,1,1485,790.7278276351145) translate(4.074999999999996 32.6)"/><use xlink:href="#q" transform="matrix(1,0,0,1,1485,790.7278276351145) translate(78.975 32.6)"/><use xlink:href="#A" transform="matrix(1,0,0,1,1485,790.7278276351145) translate(88.975 32.6)"/><path d="M1735 741.82v44.13" stroke="#333" stroke-width="2" fill="none"/><path d="M1736 741.84h-2v-1.02h2zM1736 786.95h-2v-1.03h2z" fill="#333"/><path d="M2160 668c0-4.42 3.58-8 8-8h124c4.42 0 8 3.58 8 8v73.44c0 4.4-3.58 8-8 8h-124c-4.42 0-8-3.6-8-8z" stroke="#333" fill="#99d2f2"/><use xlink:href="#t" transform="matrix(1,0,0,1,2165,665) translate(32.074999999999996 43.6)"/><use xlink:href="#u" transform="matrix(1,0,0,1,2165,665) translate(69.975 43.6)"/><path d="M2720 668c0-4.42 3.58-8 8-8h124c4.42 0 8 3.58 8 8v73.44c0 4.4-3.58 8-8 8h-124c-4.42 0-8-3.6-8-8z" stroke="#333" fill="#99d2f2"/><use xlink:href="#s" transform="matrix(1,0,0,1,2725,665) translate(41.025 43.6)"/><path d="M2520 601.82v16.34c0 6.63-5.37 12-12 12h-266c-6.63 0-12 5.37-12 12v16.34" stroke="#333" stroke-width="2" fill="none"/><path d="M2521 601.84h-2v-1.02h2zM2231 659.5h-2v-1.03h2z" fill="#333"/><path d="M2520 601.82v16.34c0 6.63 5.37 12 12 12h246c6.63 0 12 5.37 12 12v16.34" stroke="#333" stroke-width="2" fill="none"/><path d="M2521 601.84h-2v-1.02h2zM2791 659.5h-2v-1.03h2z" fill="#333"/><path d="M1390 740.1v10.06c0 6.63 5.37 12 12 12h136c6.63 0 12 5.38 12 12v10.07" stroke="#333" stroke-width="2" fill="none"/><path d="M1391 740.13h-2v-1.03h2zM1551 785.23h-2v-1.03h2z" fill="#333"/><path d="M2720 802.85c0-4.42 3.58-8 8-8h124c4.42 0 8 3.58 8 8v51.7c0 4.43-3.58 8-8 8h-124c-4.42 0-8-3.57-8-8z" stroke="#333" fill="#c1e4f7"/><use xlink:href="#B" transform="matrix(1,0,0,1,2725,799.8458707263358) translate(43.025 32.6)"/><path d="M2790 750.94v42.4" stroke="#333" stroke-width="2" fill="none"/><path d="M2791 750.96h-2v-1.02h2zM2791 794.35h-2v-1.03h2z" fill="#333"/><path d="M2720 915.97c0-4.4 3.58-8 8-8h124c4.42 0 8 3.6 8 8v25.15c0 4.42-3.58 8-8 8h-124c-4.42 0-8-3.58-8-8z" stroke="#333" fill="#d8effc"/><use xlink:href="#C" transform="matrix(1,0,0,1,2725,912.9736983614501) translate(48.4 19.6)"/><path d="M2880 915.97c0-4.4 3.58-8 8-8h124c4.42 0 8 3.6 8 8v25.15c0 4.42-3.58 8-8 8h-124c-4.42 0-8-3.58-8-8z" stroke="#333" fill="#d8effc"/><use xlink:href="#D" transform="matrix(1,0,0,1,2885,912.9736983614501) translate(20.099999999999994 19.6)"/><path d="M2560 915.97c0-4.4 3.58-8 8-8h124c4.42 0 8 3.6 8 8v25.15c0 4.42-3.58 8-8 8h-124c-4.42 0-8-3.58-8-8z" stroke="#333" fill="#d8effc"/><use xlink:href="#E" transform="matrix(1,0,0,1,2565,912.9736983614501) translate(25.025 19.6)"/><path d="M2790 864.06v9.2c0 6.64-5.37 12-12 12h-136c-6.63 0-12 5.38-12 12v9.2" stroke="#333" stroke-width="2" fill="none"/><path d="M2791 864.1h-2v-1.04h2zM2631 907.47h-2v-1.02h2z" fill="#333"/><path d="M2790 864.06v42.4" stroke="#333" stroke-width="2" fill="none"/><path d="M2791 864.1h-2v-1.04h2zM2791 907.47h-2v-1.02h2z" fill="#333"/><path d="M2790 864.06v9.2c0 6.64 5.37 12 12 12h136c6.63 0 12 5.38 12 12v9.2" stroke="#333" stroke-width="2" fill="none"/><path d="M2791 864.1h-2v-1.04h2zM2951 907.47h-2v-1.02h2z" fill="#333"/><path d="M2000 797.16c0-4.4 3.58-8 8-8h124c4.42 0 8 3.6 8 8v51.72c0 4.42-3.58 8-8 8h-124c-4.42 0-8-3.58-8-8z" stroke="#333" fill="#c1e4f7"/><use xlink:href="#v" transform="matrix(1,0,0,1,2005,794.1639138175573) translate(49 32.6)"/><path d="M2320 797.16c0-4.4 3.58-8 8-8h124c4.42 0 8 3.6 8 8v51.72c0 4.42-3.58 8-8 8h-124c-4.42 0-8-3.58-8-8z" stroke="#333" fill="#c1e4f7"/><use xlink:href="#w" transform="matrix(1,0,0,1,2325,794.1639138175573) translate(39.05 32.6)"/><path d="M2160 797.16c0-4.4 3.58-8 8-8h124c4.42 0 8 3.6 8 8v51.72c0 4.42-3.58 8-8 8h-124c-4.42 0-8-3.58-8-8z" stroke="#333" fill="#c1e4f7"/><use xlink:href="#F" transform="matrix(1,0,0,1,2165,794.1639138175573) translate(43.525 32.6)"/><path d="M1840 797.16c0-4.4 3.58-8 8-8h124c4.42 0 8 3.6 8 8v51.72c0 4.42-3.58 8-8 8h-124c-4.42 0-8-3.58-8-8z" stroke="#333" fill="#c1e4f7"/><use xlink:href="#G" transform="matrix(1,0,0,1,1845,794.1639138175573) translate(10.149999999999991 32.6)"/><use xlink:href="#H" transform="matrix(1,0,0,1,1845,794.1639138175573) translate(99.95 32.6)"/><path d="M2480 797.16c0-4.4 3.58-8 8-8h124c4.42 0 8 3.6 8 8v51.72c0 4.42-3.58 8-8 8h-124c-4.42 0-8-3.58-8-8z" stroke="#333" fill="#c1e4f7"/><use xlink:href="#I" transform="matrix(1,0,0,1,2485,794.1639138175573) translate(31.125 32.6)"/><use xlink:href="#H" transform="matrix(1,0,0,1,2485,794.1639138175573) translate(78.97500000000001 32.6)"/><path d="M2230 750.94v6.36c0 6.63-5.37 12-12 12h-296c-6.63 0-12 5.37-12 12v6.36" stroke="#333" stroke-width="2" fill="none"/><path d="M2231 750.96h-2v-1.02h2zM1911 788.66h-2v-1.02h2z" fill="#333"/><path d="M2230 750.94v6.36c0 6.63-5.37 12-12 12h-136c-6.63 0-12 5.37-12 12v6.36" stroke="#333" stroke-width="2" fill="none"/><path d="M2231 750.96h-2v-1.02h2zM2071 788.66h-2v-1.02h2z" fill="#333"/><path d="M2230 750.94v36.72" stroke="#333" stroke-width="2" fill="none"/><path d="M2231 750.96h-2v-1.02h2zM2231 788.66h-2v-1.02h2z" fill="#333"/><path d="M2230 750.94v6.36c0 6.63 5.37 12 12 12h136c6.63 0 12 5.37 12 12v6.36" stroke="#333" stroke-width="2" fill="none"/><path d="M2231 750.96h-2v-1.02h2zM2391 788.66h-2v-1.02h2z" fill="#333"/><path d="M2230 750.94v6.36c0 6.63 5.37 12 12 12h296c6.63 0 12 5.37 12 12v6.36" stroke="#333" stroke-width="2" fill="none"/><path d="M2231 750.96h-2v-1.02h2zM2551 788.66h-2v-1.02h2z" fill="#333"/><defs><path fill="#fafafa" d="M169-182c-1-43-94-46-97-3 18 66 151 10 154 114 3 95-165 93-204 36-6-8-10-19-12-30l50-8c3 46 112 56 116 5-17-69-150-10-154-114-4-87 153-88 188-35 5 8 8 18 10 28" id="J"/><path fill="#fafafa" d="M115-3C79 11 28 4 28-45v-112H4v-33h27l15-45h31v45h36v33H77v99c-1 23 16 31 38 25v30" id="K"/><path fill="#fafafa" d="M85 4C-2 5 27-109 22-190h50c7 57-23 150 33 157 60-5 35-97 40-157h50l1 190h-47c-2-12 1-28-3-38-12 25-28 42-61 42" id="L"/><path fill="#fafafa" d="M88-194c31-1 46 15 58 34l-1-101h50l1 261h-48c-2-10 0-23-3-31C134-8 116 4 84 4 32 4 16-41 15-95c0-56 19-97 73-99zm17 164c33 0 40-30 41-66 1-37-9-64-41-64s-38 30-39 65c0 43 13 65 39 65" id="M"/><path fill="#fafafa" d="M123 10C108 53 80 86 19 72V37c35 8 53-11 59-39L3-190h52l48 148c12-52 28-100 44-148h51" id="N"/><g id="a"><use transform="matrix(0.05,0,0,0.05,0,0)" xlink:href="#J"/><use transform="matrix(0.05,0,0,0.05,12,0)" xlink:href="#K"/><use transform="matrix(0.05,0,0,0.05,17.95,0)" xlink:href="#L"/><use transform="matrix(0.05,0,0,0.05,28.899999999999995,0)" xlink:href="#M"/><use transform="matrix(0.05,0,0,0.05,39.85,0)" xlink:href="#N"/></g><path fill="#fafafa" d="M186 0v-106H76V0H24v-248h52v99h110v-99h50V0h-50" id="O"/><path fill="#fafafa" d="M185-48c-13 30-37 53-82 52C43 2 14-33 14-96s30-98 90-98c62 0 83 45 84 108H66c0 31 8 55 39 56 18 0 30-7 34-22zm-45-69c5-46-57-63-70-21-2 6-4 13-4 21h74" id="P"/><path fill="#fafafa" d="M25 0v-261h50V0H25" id="Q"/><path fill="#fafafa" d="M135-194c53 0 70 44 70 98 0 56-19 98-73 100-31 1-45-17-59-34 3 33 2 69 2 105H25l-1-265h48c2 10 0 23 3 31 11-24 29-35 60-35zM114-30c33 0 39-31 40-66 0-38-9-64-40-64-56 0-55 130 0 130" id="R"/><path fill="#fafafa" d="M135-150c-39-12-60 13-60 57V0H25l-1-190h47c2 13-1 29 3 40 6-28 27-53 61-41v41" id="S"/><g id="b"><use transform="matrix(0.05,0,0,0.05,0,0)" xlink:href="#O"/><use transform="matrix(0.05,0,0,0.05,12.950000000000001,0)" xlink:href="#P"/><use transform="matrix(0.05,0,0,0.05,22.950000000000003,0)" xlink:href="#Q"/><use transform="matrix(0.05,0,0,0.05,27.950000000000003,0)" xlink:href="#R"/><use transform="matrix(0.05,0,0,0.05,38.900000000000006,0)" xlink:href="#P"/><use transform="matrix(0.05,0,0,0.05,48.900000000000006,0)" xlink:href="#S"/></g><path fill="#333" d="M240 0l2-218c-23 76-54 145-80 218h-23L58-218 59 0H30v-248h44l77 211c21-75 51-140 76-211h43V0h-30" id="T"/><path fill="#333" d="M84 4C-5 8 30-112 23-190h32v120c0 31 7 50 39 49 72-2 45-101 50-169h31l1 190h-30c-1-10 1-25-2-33-11 22-28 36-60 37" id="U"/><path fill="#333" d="M24 0v-261h32V0H24" id="V"/><path fill="#333" d="M59-47c-2 24 18 29 38 22v24C64 9 27 4 27-40v-127H5v-23h24l9-43h21v43h35v23H59v120" id="W"/><path fill="#333" d="M24-231v-30h32v30H24zM24 0v-190h32V0H24" id="X"/><path fill="#333" d="M16-82v-28h88v28H16" id="Y"/><path fill="#333" d="M63-220v92h138v28H63V0H30v-248h175v28H63" id="Z"/><path fill="#333" d="M117-194c89-4 53 116 60 194h-32v-121c0-31-8-49-39-48C34-167 62-67 57 0H25l-1-190h30c1 10-1 24 2 32 11-22 29-35 61-36" id="aa"/><path fill="#333" d="M96-169c-40 0-48 33-48 73s9 75 48 75c24 0 41-14 43-38l32 2c-6 37-31 61-74 61-59 0-76-41-82-99-10-93 101-131 147-64 4 7 5 14 7 22l-32 3c-4-21-16-35-41-35" id="ab"/><path fill="#333" d="M100-194c62-1 85 37 85 99 1 63-27 99-86 99S16-35 15-95c0-66 28-99 85-99zM99-20c44 1 53-31 53-75 0-43-8-75-51-75s-53 32-53 75 10 74 51 75" id="ac"/><g id="c"><use transform="matrix(0.05,0,0,0.05,0,0)" xlink:href="#T"/><use transform="matrix(0.05,0,0,0.05,14.950000000000001,0)" xlink:href="#U"/><use transform="matrix(0.05,0,0,0.05,24.950000000000003,0)" xlink:href="#V"/><use transform="matrix(0.05,0,0,0.05,28.900000000000002,0)" xlink:href="#W"/><use transform="matrix(0.05,0,0,0.05,33.900000000000006,0)" xlink:href="#X"/><use transform="matrix(0.05,0,0,0.05,37.85000000000001,0)" xlink:href="#Y"/><use transform="matrix(0.05,0,0,0.05,43.80000000000001,0)" xlink:href="#Z"/><use transform="matrix(0.05,0,0,0.05,54.750000000000014,0)" xlink:href="#U"/><use transform="matrix(0.05,0,0,0.05,64.75000000000001,0)" xlink:href="#aa"/><use transform="matrix(0.05,0,0,0.05,74.75000000000001,0)" xlink:href="#ab"/><use transform="matrix(0.05,0,0,0.05,83.75000000000001,0)" xlink:href="#W"/><use transform="matrix(0.05,0,0,0.05,88.75000000000001,0)" xlink:href="#X"/><use transform="matrix(0.05,0,0,0.05,92.70000000000002,0)" xlink:href="#ac"/><use transform="matrix(0.05,0,0,0.05,102.7,0)" xlink:href="#aa"/></g><path fill="#333" d="M30-248c118-7 216 8 213 122C240-48 200 0 122 0H30v-248zM63-27c89 8 146-16 146-99s-60-101-146-95v194" id="ad"/><path fill="#333" d="M177-190C167-65 218 103 67 71c-23-6-38-20-44-43l32-5c15 47 100 32 89-28v-30C133-14 115 1 83 1 29 1 15-40 15-95c0-56 16-97 71-98 29-1 48 16 59 35 1-10 0-23 2-32h30zM94-22c36 0 50-32 50-73 0-42-14-75-50-75-39 0-46 34-46 75s6 73 46 73" id="ae"/><path fill="#333" d="M141-36C126-15 110 5 73 4 37 3 15-17 15-53c-1-64 63-63 125-63 3-35-9-54-41-54-24 1-41 7-42 31l-33-3c5-37 33-52 76-52 45 0 72 20 72 64v82c-1 20 7 32 28 27v20c-31 9-61-2-59-35zM48-53c0 20 12 33 32 33 41-3 63-29 60-74-43 2-92-5-92 41" id="af"/><g id="d"><use transform="matrix(0.05,0,0,0.05,0,0)" xlink:href="#ad"/><use transform="matrix(0.05,0,0,0.05,12.950000000000001,0)" xlink:href="#X"/><use transform="matrix(0.05,0,0,0.05,16.900000000000002,0)" xlink:href="#ae"/><use transform="matrix(0.05,0,0,0.05,26.900000000000002,0)" xlink:href="#X"/><use transform="matrix(0.05,0,0,0.05,30.85,0)" xlink:href="#W"/><use transform="matrix(0.05,0,0,0.05,35.85,0)" xlink:href="#af"/><use transform="matrix(0.05,0,0,0.05,45.85,0)" xlink:href="#V"/></g><path fill="#333" d="M212-179c-10-28-35-45-73-45-59 0-87 40-87 99 0 60 29 101 89 101 43 0 62-24 78-52l27 14C228-24 195 4 139 4 59 4 22-46 18-125c-6-104 99-153 187-111 19 9 31 26 39 46" id="ag"/><path fill="#333" d="M143 0L79-87 56-68V0H24v-261h32v163l83-92h37l-77 82L181 0h-38" id="ah"/><g id="e"><use transform="matrix(0.05,0,0,0.05,0,0)" xlink:href="#ag"/><use transform="matrix(0.05,0,0,0.05,12.950000000000001,0)" xlink:href="#V"/><use transform="matrix(0.05,0,0,0.05,16.900000000000002,0)" xlink:href="#ac"/><use transform="matrix(0.05,0,0,0.05,26.900000000000002,0)" xlink:href="#ab"/><use transform="matrix(0.05,0,0,0.05,35.900000000000006,0)" xlink:href="#ah"/></g><path fill="#333" d="M135-143c-3-34-86-38-87 0 15 53 115 12 119 90S17 21 10-45l28-5c4 36 97 45 98 0-10-56-113-15-118-90-4-57 82-63 122-42 12 7 21 19 24 35" id="ai"/><path fill="#333" d="M106-169C34-169 62-67 57 0H25v-261h32l-1 103c12-21 28-36 61-36 89 0 53 116 60 194h-32v-121c2-32-8-49-39-48" id="aj"/><g id="f"><use transform="matrix(0.05,0,0,0.05,0,0)" xlink:href="#Z"/><use transform="matrix(0.05,0,0,0.05,10.950000000000001,0)" xlink:href="#af"/><use transform="matrix(0.05,0,0,0.05,20.950000000000003,0)" xlink:href="#V"/><use transform="matrix(0.05,0,0,0.05,24.900000000000002,0)" xlink:href="#ai"/><use transform="matrix(0.05,0,0,0.05,33.900000000000006,0)" xlink:href="#aj"/></g><path fill="#333" d="M114-163C36-179 61-72 57 0H25l-1-190h30c1 12-1 29 2 39 6-27 23-49 58-41v29" id="ak"/><path fill="#333" d="M85-194c31 0 48 13 60 33l-1-100h32l1 261h-30c-2-10 0-23-3-31C134-8 116 4 85 4 32 4 16-35 15-94c0-66 23-100 70-100zm9 24c-40 0-46 34-46 75 0 40 6 74 45 74 42 0 51-32 51-76 0-42-9-74-50-73" id="al"/><g id="g"><use transform="matrix(0.05,0,0,0.05,0,0)" xlink:href="#ag"/><use transform="matrix(0.05,0,0,0.05,12.950000000000001,0)" xlink:href="#af"/><use transform="matrix(0.05,0,0,0.05,22.950000000000003,0)" xlink:href="#ak"/><use transform="matrix(0.05,0,0,0.05,28.900000000000002,0)" xlink:href="#al"/><use transform="matrix(0.05,0,0,0.05,38.900000000000006,0)" xlink:href="#ai"/></g><path fill="#333" d="M179-190L93 31C79 59 56 82 12 73V49c39 6 53-20 64-50L1-190h34L92-34l54-156h33" id="am"/><g id="h"><use transform="matrix(0.05,0,0,0.05,0,0)" xlink:href="#ad"/><use transform="matrix(0.05,0,0,0.05,12.950000000000001,0)" xlink:href="#af"/><use transform="matrix(0.05,0,0,0.05,22.950000000000003,0)" xlink:href="#X"/><use transform="matrix(0.05,0,0,0.05,26.900000000000002,0)" xlink:href="#V"/><use transform="matrix(0.05,0,0,0.05,30.85,0)" xlink:href="#am"/></g><path fill="#333" d="M127-220V0H93v-220H8v-28h204v28h-85" id="an"/><g id="i"><use transform="matrix(0.05,0,0,0.05,0,0)" xlink:href="#an"/><use transform="matrix(0.05,0,0,0.05,8.950000000000001,0)" xlink:href="#ac"/><use transform="matrix(0.05,0,0,0.05,18.950000000000003,0)" xlink:href="#Y"/><use transform="matrix(0.05,0,0,0.05,24.900000000000002,0)" xlink:href="#ad"/><use transform="matrix(0.05,0,0,0.05,37.85,0)" xlink:href="#ac"/></g><path fill="#333" d="M30 0v-248h33v221h125V0H30" id="ao"/><g id="j"><use transform="matrix(0.05,0,0,0.05,0,0)" xlink:href="#ao"/><use transform="matrix(0.05,0,0,0.05,10,0)" xlink:href="#X"/><use transform="matrix(0.05,0,0,0.05,13.949999999999998,0)" xlink:href="#ai"/><use transform="matrix(0.05,0,0,0.05,22.95,0)" xlink:href="#W"/></g><g id="k"><use transform="matrix(0.05,0,0,0.05,0,0)" xlink:href="#ag"/><use transform="matrix(0.05,0,0,0.05,12.950000000000001,0)" xlink:href="#V"/><use transform="matrix(0.05,0,0,0.05,16.900000000000002,0)" xlink:href="#ac"/><use transform="matrix(0.05,0,0,0.05,26.900000000000002,0)" xlink:href="#ab"/><use transform="matrix(0.05,0,0,0.05,35.900000000000006,0)" xlink:href="#ah"/></g><path fill="#333" d="M185-189c-5-48-123-54-124 2 14 75 158 14 163 119 3 78-121 87-175 55-17-10-28-26-33-46l33-7c5 56 141 63 141-1 0-78-155-14-162-118-5-82 145-84 179-34 5 7 8 16 11 25" id="ap"/><path fill="#333" d="M115-194c55 1 70 41 70 98S169 2 115 4C84 4 66-9 55-30l1 105H24l-1-265h31l2 30c10-21 28-34 59-34zm-8 174c40 0 45-34 45-75s-6-73-45-74c-42 0-51 32-51 76 0 43 10 73 51 73" id="aq"/><path fill="#333" d="M206 0h-36l-40-164L89 0H53L-1-190h32L70-26l43-164h34l41 164 42-164h31" id="ar"/><g id="l"><use transform="matrix(0.05,0,0,0.05,0,0)" xlink:href="#ap"/><use transform="matrix(0.05,0,0,0.05,12,0)" xlink:href="#W"/><use transform="matrix(0.05,0,0,0.05,17,0)" xlink:href="#ac"/><use transform="matrix(0.05,0,0,0.05,27,0)" xlink:href="#aq"/><use transform="matrix(0.05,0,0,0.05,37,0)" xlink:href="#ar"/><use transform="matrix(0.05,0,0,0.05,49.95,0)" xlink:href="#af"/><use transform="matrix(0.05,0,0,0.05,59.95,0)" xlink:href="#W"/><use transform="matrix(0.05,0,0,0.05,64.95,0)" xlink:href="#ab"/><use transform="matrix(0.05,0,0,0.05,73.95,0)" xlink:href="#aj"/></g><path fill="#333" d="M210-169c-67 3-38 105-44 169h-31v-121c0-29-5-50-35-48C34-165 62-65 56 0H25l-1-190h30c1 10-1 24 2 32 10-44 99-50 107 0 11-21 27-35 58-36 85-2 47 119 55 194h-31v-121c0-29-5-49-35-48" id="as"/><path fill="#333" d="M100-194c63 0 86 42 84 106H49c0 40 14 67 53 68 26 1 43-12 49-29l28 8c-11 28-37 45-77 45C44 4 14-33 15-96c1-61 26-98 85-98zm52 81c6-60-76-77-97-28-3 7-6 17-6 28h103" id="at"/><g id="m"><use transform="matrix(0.05,0,0,0.05,0,0)" xlink:href="#an"/><use transform="matrix(0.05,0,0,0.05,10.3,0)" xlink:href="#X"/><use transform="matrix(0.05,0,0,0.05,14.25,0)" xlink:href="#as"/><use transform="matrix(0.05,0,0,0.05,29.200000000000003,0)" xlink:href="#at"/><use transform="matrix(0.05,0,0,0.05,39.2,0)" xlink:href="#ak"/></g><g id="n"><use transform="matrix(0.05,0,0,0.05,0,0)" xlink:href="#ad"/><use transform="matrix(0.05,0,0,0.05,12.950000000000001,0)" xlink:href="#af"/><use transform="matrix(0.05,0,0,0.05,22.950000000000003,0)" xlink:href="#am"/></g><g id="o"><use transform="matrix(0.05,0,0,0.05,0,0)" xlink:href="#an"/><use transform="matrix(0.05,0,0,0.05,10.3,0)" xlink:href="#X"/><use transform="matrix(0.05,0,0,0.05,14.25,0)" xlink:href="#as"/><use transform="matrix(0.05,0,0,0.05,29.200000000000003,0)" xlink:href="#at"/></g><path fill="#333" d="M205 0l-28-72H64L36 0H1l101-248h38L239 0h-34zm-38-99l-47-123c-12 45-31 82-46 123h93" id="au"/><g id="p"><use transform="matrix(0.05,0,0,0.05,0,0)" xlink:href="#au"/><use transform="matrix(0.05,0,0,0.05,12,0)" xlink:href="#T"/></g><path fill="#333" d="M0 4l72-265h28L28 4H0" id="av"/><use transform="matrix(0.05,0,0,0.05,0,0)" xlink:href="#av" id="q"/><path fill="#333" d="M30-248c87 1 191-15 191 75 0 78-77 80-158 76V0H30v-248zm33 125c57 0 124 11 124-50 0-59-68-47-124-48v98" id="aw"/><g id="r"><use transform="matrix(0.05,0,0,0.05,0,0)" xlink:href="#aw"/><use transform="matrix(0.05,0,0,0.05,12,0)" xlink:href="#T"/></g><path fill="#333" d="M160-131c35 5 61 23 61 61C221 17 115-2 30 0v-248c76 3 177-17 177 60 0 33-19 50-47 57zm-97-11c50-1 110 9 110-42 0-47-63-36-110-37v79zm0 115c55-2 124 14 124-45 0-56-70-42-124-44v89" id="ax"/><g id="s"><use transform="matrix(0.05,0,0,0.05,0,0)" xlink:href="#ax"/><use transform="matrix(0.05,0,0,0.05,12,0)" xlink:href="#ac"/><use transform="matrix(0.05,0,0,0.05,22,0)" xlink:href="#af"/><use transform="matrix(0.05,0,0,0.05,32,0)" xlink:href="#ak"/><use transform="matrix(0.05,0,0,0.05,37.95,0)" xlink:href="#al"/></g><g id="t"><use transform="matrix(0.05,0,0,0.05,0,0)" xlink:href="#an"/><use transform="matrix(0.05,0,0,0.05,8.950000000000001,0)" xlink:href="#ac"/><use transform="matrix(0.05,0,0,0.05,18.950000000000003,0)" xlink:href="#ac"/><use transform="matrix(0.05,0,0,0.05,28.950000000000003,0)" xlink:href="#V"/></g><g id="u"><use transform="matrix(0.05,0,0,0.05,0,0)" xlink:href="#ax"/><use transform="matrix(0.05,0,0,0.05,12,0)" xlink:href="#af"/><use transform="matrix(0.05,0,0,0.05,22,0)" xlink:href="#ak"/></g><g id="v"><use transform="matrix(0.05,0,0,0.05,0,0)" xlink:href="#au"/><use transform="matrix(0.05,0,0,0.05,12,0)" xlink:href="#al"/><use transform="matrix(0.05,0,0,0.05,22,0)" xlink:href="#al"/></g><g id="w"><use transform="matrix(0.05,0,0,0.05,0,0)" xlink:href="#ad"/><use transform="matrix(0.05,0,0,0.05,12.950000000000001,0)" xlink:href="#at"/><use transform="matrix(0.05,0,0,0.05,22.950000000000003,0)" xlink:href="#V"/><use transform="matrix(0.05,0,0,0.05,26.900000000000002,0)" xlink:href="#at"/><use transform="matrix(0.05,0,0,0.05,36.900000000000006,0)" xlink:href="#W"/><use transform="matrix(0.05,0,0,0.05,41.900000000000006,0)" xlink:href="#at"/></g><g id="x"><use transform="matrix(0.05,0,0,0.05,0,0)" xlink:href="#ap"/><use transform="matrix(0.05,0,0,0.05,12,0)" xlink:href="#at"/><use transform="matrix(0.05,0,0,0.05,22,0)" xlink:href="#at"/></g><g id="y"><use transform="matrix(0.05,0,0,0.05,0,0)" xlink:href="#au"/><use transform="matrix(0.05,0,0,0.05,12,0)" xlink:href="#aa"/><use transform="matrix(0.05,0,0,0.05,22,0)" xlink:href="#ai"/><use transform="matrix(0.05,0,0,0.05,31,0)" xlink:href="#ar"/><use transform="matrix(0.05,0,0,0.05,43.95,0)" xlink:href="#at"/><use transform="matrix(0.05,0,0,0.05,53.95,0)" xlink:href="#ak"/><use transform="matrix(0.05,0,0,0.05,59.900000000000006,0)" xlink:href="#ai"/></g><path fill="#333" d="M108 0H70L1-190h34L89-25l56-165h34" id="ay"/><g id="z"><use transform="matrix(0.05,0,0,0.05,0,0)" xlink:href="#aw"/><use transform="matrix(0.05,0,0,0.05,12,0)" xlink:href="#ak"/><use transform="matrix(0.05,0,0,0.05,17.95,0)" xlink:href="#at"/><use transform="matrix(0.05,0,0,0.05,27.950000000000003,0)" xlink:href="#ay"/><use transform="matrix(0.05,0,0,0.05,36.95,0)" xlink:href="#X"/><use transform="matrix(0.05,0,0,0.05,40.900000000000006,0)" xlink:href="#ac"/><use transform="matrix(0.05,0,0,0.05,50.900000000000006,0)" xlink:href="#U"/><use transform="matrix(0.05,0,0,0.05,60.900000000000006,0)" xlink:href="#ai"/></g><path fill="#333" d="M190 0L58-211 59 0H30v-248h39L202-35l-2-213h31V0h-41" id="az"/><path fill="#333" d="M141 0L90-78 38 0H4l68-98-65-92h35l48 74 47-74h35l-64 92 68 98h-35" id="aA"/><g id="A"><use transform="matrix(0.05,0,0,0.05,0,0)" xlink:href="#az"/><use transform="matrix(0.05,0,0,0.05,12.950000000000001,0)" xlink:href="#at"/><use transform="matrix(0.05,0,0,0.05,22.950000000000003,0)" xlink:href="#aA"/><use transform="matrix(0.05,0,0,0.05,31.950000000000003,0)" xlink:href="#W"/></g><path fill="#333" d="M33 0v-248h34V0H33" id="aB"/><g id="B"><use transform="matrix(0.05,0,0,0.05,0,0)" xlink:href="#aB"/><use transform="matrix(0.05,0,0,0.05,5,0)" xlink:href="#W"/><use transform="matrix(0.05,0,0,0.05,10,0)" xlink:href="#at"/><use transform="matrix(0.05,0,0,0.05,20,0)" xlink:href="#as"/><use transform="matrix(0.05,0,0,0.05,34.95,0)" xlink:href="#ai"/></g><g id="C"><use transform="matrix(0.05,0,0,0.05,0,0)" xlink:href="#an"/><use transform="matrix(0.05,0,0,0.05,10.3,0)" xlink:href="#X"/><use transform="matrix(0.05,0,0,0.05,14.25,0)" xlink:href="#W"/><use transform="matrix(0.05,0,0,0.05,19.25,0)" xlink:href="#V"/><use transform="matrix(0.05,0,0,0.05,23.2,0)" xlink:href="#at"/></g><g id="D"><use transform="matrix(0.05,0,0,0.05,0,0)" xlink:href="#ad"/><use transform="matrix(0.05,0,0,0.05,12.950000000000001,0)" xlink:href="#at"/><use transform="matrix(0.05,0,0,0.05,22.950000000000003,0)" xlink:href="#ai"/><use transform="matrix(0.05,0,0,0.05,31.950000000000003,0)" xlink:href="#ab"/><use transform="matrix(0.05,0,0,0.05,40.95,0)" xlink:href="#ak"/><use transform="matrix(0.05,0,0,0.05,46.900000000000006,0)" xlink:href="#X"/><use transform="matrix(0.05,0,0,0.05,50.85000000000001,0)" xlink:href="#aq"/><use transform="matrix(0.05,0,0,0.05,60.85,0)" xlink:href="#W"/><use transform="matrix(0.05,0,0,0.05,65.85000000000001,0)" xlink:href="#X"/><use transform="matrix(0.05,0,0,0.05,69.80000000000001,0)" xlink:href="#ac"/><use transform="matrix(0.05,0,0,0.05,79.80000000000001,0)" xlink:href="#aa"/></g><path fill="#333" d="M115-194c53 0 69 39 70 98 0 66-23 100-70 100C84 3 66-7 56-30L54 0H23l1-261h32v101c10-23 28-34 59-34zm-8 174c40 0 45-34 45-75 0-40-5-75-45-74-42 0-51 32-51 76 0 43 10 73 51 73" id="aC"/><g id="E"><use transform="matrix(0.05,0,0,0.05,0,0)" xlink:href="#ag"/><use transform="matrix(0.05,0,0,0.05,12.950000000000001,0)" xlink:href="#aj"/><use transform="matrix(0.05,0,0,0.05,22.950000000000003,0)" xlink:href="#at"/><use transform="matrix(0.05,0,0,0.05,32.95,0)" xlink:href="#ab"/><use transform="matrix(0.05,0,0,0.05,41.95,0)" xlink:href="#ah"/><use transform="matrix(0.05,0,0,0.05,50.95,0)" xlink:href="#aC"/><use transform="matrix(0.05,0,0,0.05,60.95,0)" xlink:href="#ac"/><use transform="matrix(0.05,0,0,0.05,70.95,0)" xlink:href="#aA"/></g><path fill="#333" d="M232-93c-1 65-40 97-104 97C67 4 28-28 28-90v-158h33c8 89-33 224 67 224 102 0 64-133 71-224h33v155" id="aD"/><g id="F"><use transform="matrix(0.05,0,0,0.05,0,0)" xlink:href="#aD"/><use transform="matrix(0.05,0,0,0.05,12.950000000000001,0)" xlink:href="#aa"/><use transform="matrix(0.05,0,0,0.05,22.950000000000003,0)" xlink:href="#al"/><use transform="matrix(0.05,0,0,0.05,32.95,0)" xlink:href="#ac"/></g><path fill="#333" d="M87 75C49 33 22-17 22-94c0-76 28-126 65-167h31c-38 41-64 92-64 168S80 34 118 75H87" id="aE"/><path fill="#333" d="M33-261c38 41 65 92 65 168S71 34 33 75H2C39 34 66-17 66-93S39-220 2-261h31" id="aF"/><g id="G"><use transform="matrix(0.05,0,0,0.05,0,0)" xlink:href="#aE"/><use transform="matrix(0.05,0,0,0.05,5.95,0)" xlink:href="#ad"/><use transform="matrix(0.05,0,0,0.05,18.900000000000002,0)" xlink:href="#at"/><use transform="matrix(0.05,0,0,0.05,28.900000000000002,0)" xlink:href="#aF"/><use transform="matrix(0.05,0,0,0.05,34.85,0)" xlink:href="#ap"/><use transform="matrix(0.05,0,0,0.05,46.85,0)" xlink:href="#at"/><use transform="matrix(0.05,0,0,0.05,56.85,0)" xlink:href="#V"/><use transform="matrix(0.05,0,0,0.05,60.800000000000004,0)" xlink:href="#at"/><use transform="matrix(0.05,0,0,0.05,70.80000000000001,0)" xlink:href="#ab"/><use transform="matrix(0.05,0,0,0.05,79.80000000000001,0)" xlink:href="#W"/></g><g id="H"><use transform="matrix(0.05,0,0,0.05,0,0)" xlink:href="#au"/><use transform="matrix(0.05,0,0,0.05,12,0)" xlink:href="#V"/><use transform="matrix(0.05,0,0,0.05,15.949999999999998,0)" xlink:href="#V"/></g><g id="I"><use transform="matrix(0.05,0,0,0.05,0,0)" xlink:href="#ag"/><use transform="matrix(0.05,0,0,0.05,12.950000000000001,0)" xlink:href="#V"/><use transform="matrix(0.05,0,0,0.05,16.900000000000002,0)" xlink:href="#at"/><use transform="matrix(0.05,0,0,0.05,26.900000000000002,0)" xlink:href="#af"/><use transform="matrix(0.05,0,0,0.05,36.900000000000006,0)" xlink:href="#ak"/></g></defs></g></svg>