<svg xmlns="http://www.w3.org/2000/svg" xmlns:xlink="http://www.w3.org/1999/xlink" xmlns:lucid="lucid" width="1320" height="1233.93"><g transform="translate(-200 -331.5370039227771)" lucid:page-tab-id="0_0"><path d="M574.43 351.54c17.67 0 32 17.9 32 40s-14.33 40-32 40h-96c-17.68 0-32-17.9-32-40s14.32-40 32-40z" stroke="#000" stroke-width="3" fill="#333"/><use xlink:href="#a" transform="matrix(1,0,0,1,451.4250998022387,356.5370039227771) translate(49.75308641975309 39.65277777777778)"/><path d="M446.8 663c0-3.3 2.67-6 6-6h148c3.3 0 6 2.7 6 6v108c0 3.3-2.7 6-6 6h-148c-3.33 0-6-2.7-6-6z" stroke="#000" stroke-width="3" fill="#fff"/><path d="M462.8 657v120m128-120v120" stroke="#000" stroke-width="3" fill="none"/><use xlink:href="#b" transform="matrix(1,0,0,1,471.78745004740483,662) translate(3.1790123456790127 46.111111111111114)"/><use xlink:href="#c" transform="matrix(1,0,0,1,471.78745004740483,662) translate(31.635802469135804 72.77777777777777)"/><path d="M220 646c0-3.3 2.7-6 6-6h168c3.3 0 6 2.7 6 6v48c0 3.3-2.7 6-6 6H226c-3.3 0-6-2.7-6-6z" stroke="#000" stroke-opacity="0" stroke-width="3" fill="#fff" fill-opacity="0"/><use xlink:href="#d" transform="matrix(1,0,0,1,225,645) translate(9.228395061728392 30.27777777777778)"/><use xlink:href="#e" transform="matrix(1,0,0,1,225,645) translate(40.09259259259259 30.27777777777778)"/><path d="M444.3 717h-33c-3.33 0-6-2.7-6-6v-89.36c0-3.32 2.67-6 6-6h96.62" stroke="#000" stroke-width="2" fill="none"/><path d="M445.3 718h-1.04v-2h1.03z"/><path d="M523.2 615.64l-14.28 4.63V611z" stroke="#000" stroke-width="2"/><path d="M934.43 351.54c17.67 0 32 17.9 32 40s-14.33 40-32 40h-96c-17.68 0-32-17.9-32-40s14.32-40 32-40z" stroke="#000" stroke-width="3" fill="#fff"/><use xlink:href="#b" transform="matrix(1,0,0,1,811.4250998022387,356.5370039227771) translate(23.184012345679008 26.52777777777778)"/><use xlink:href="#c" transform="matrix(1,0,0,1,811.4250998022387,356.5370039227771) translate(51.6408024691358 53.19444444444445)"/><path d="M886.43 434.04v17.5" stroke="#000" stroke-width="2" fill="none"/><path d="M887.43 434.06h-2v-1.02h2z"/><path d="M886.43 466.8l-4.64-14.26h9.26z" stroke="#000" stroke-width="2"/><path d="M806.43 477.54c0-3.32 2.68-6 6-6h148c3.3 0 6 2.68 6 6v28c0 3.3-2.7 6-6 6h-148c-3.32 0-6-2.7-6-6z" stroke="#000" stroke-width="3" fill="#fff"/><use xlink:href="#f" transform="matrix(1,0,0,1,818.4250998022387,483.5370039227771) translate(52.907407407407405 17.77777777777778)"/><path d="M886.43 514.04v18.3c0 .1.08.2.18.2.1 0 .2.07.2.17v.82" stroke="#000" stroke-width="2" fill="none"/><path d="M887.43 514.06h-2v-1.02h2z"/><path d="M886.8 548.8l-4.65-14.28h9.27z" stroke="#000" stroke-width="2"/><path d="M881.77 554.83c2.77-1.82 7.26-1.82 10.04 0l96.76 63.42c2.77 1.8 2.77 4.76 0 6.58l-96.75 63.42c-2.77 1.8-7.26 1.8-10.03 0l-96.75-63.42c-2.77-1.82-2.77-4.77 0-6.58z" stroke="#000" stroke-width="3" fill="#fff"/><use xlink:href="#g" transform="matrix(1,0,0,1,785,556.5370039227771) translate(79.37537037037038 34.02777777777778)"/><use xlink:href="#h" transform="matrix(1,0,0,1,785,556.5370039227771) translate(96.59759259259259 34.02777777777778)"/><use xlink:href="#i" transform="matrix(1,0,0,1,785,556.5370039227771) translate(107.64697530864197 34.02777777777778)"/><use xlink:href="#j" transform="matrix(1,0,0,1,785,556.5370039227771) translate(29.25808641975308 60.69444444444445)"/><use xlink:href="#k" transform="matrix(1,0,0,1,785,556.5370039227771) translate(105.67783950617283 60.69444444444445)"/><use xlink:href="#l" transform="matrix(1,0,0,1,785,556.5370039227771) translate(155.06055555555554 60.69444444444445)"/><use xlink:href="#m" transform="matrix(1,0,0,1,785,556.5370039227771) translate(53.27043209876543 87.36111111111111)"/><use xlink:href="#n" transform="matrix(1,0,0,1,785,556.5370039227771) translate(113.70253086419753 87.36111111111111)"/><use xlink:href="#o" transform="matrix(1,0,0,1,785,556.5370039227771) translate(138.3938888888889 87.36111111111111)"/><path d="M887.43 733.6h-2v-1.36h2zm.36-22.7h-2v-18.85h2z"/><path d="M887.5 691.1l.3-.05v1.03h-2v-1.1zM886.43 748.86l-4.64-14.27h9.26z"/><path d="M886.43 752.1l-6.02-18.5h12.04zm-3.26-16.5l3.26 10.02 3.25-10.03z"/><use xlink:href="#p" transform="matrix(1,0,0,1,871.2976329495131,710.9075864184601) translate(0 14.222222222222223)"/><path d="M881.5 754.95c2.72-1.88 7.13-1.88 9.86 0l76.74 53.17c2.72 1.9 2.72 4.95 0 6.83l-76.74 53.17c-2.73 1.9-7.14 1.9-9.87 0l-76.75-53.17c-2.72-1.88-2.72-4.94 0-6.83z" stroke="#000" stroke-width="3" fill="#fff"/><use xlink:href="#g" transform="matrix(1,0,0,1,804.8188248259412,756.5370039227771) translate(57.46179012345679 45.27777777777778)"/><use xlink:href="#q" transform="matrix(1,0,0,1,804.8188248259412,756.5370039227771) translate(74.68401234567901 45.27777777777778)"/><use xlink:href="#r" transform="matrix(1,0,0,1,804.8188248259412,756.5370039227771) translate(35.184012345679015 71.94444444444446)"/><use xlink:href="#s" transform="matrix(1,0,0,1,804.8188248259412,756.5370039227771) translate(81.97413580246914 71.94444444444446)"/><use xlink:href="#t" transform="matrix(1,0,0,1,804.8188248259412,756.5370039227771) translate(104.13462962962963 71.94444444444446)"/><path d="M526.43 434.04V460" stroke="#000" stroke-width="2" fill="none"/><path d="M527.43 434.06h-2v-1.02h2z"/><path d="M526.43 475.26L521.8 461h9.26z" stroke="#000" stroke-width="2"/><path d="M446.43 486c0-3.3 2.68-6 6-6h148c3.3 0 6 2.7 6 6v88c0 3.3-2.7 6-6 6h-148c-3.32 0-6-2.7-6-6z" stroke="#000" stroke-width="3" fill="#fff"/><use xlink:href="#u" transform="matrix(1,0,0,1,458.4250998022387,492) translate(12.567901234567906 17.77777777777778)"/><use xlink:href="#v" transform="matrix(1,0,0,1,458.4250998022387,492) translate(98.74074074074073 17.77777777777778)"/><use xlink:href="#w" transform="matrix(1,0,0,1,458.4250998022387,492) translate(21.148148148148145 44.44444444444444)"/><use xlink:href="#x" transform="matrix(1,0,0,1,458.4250998022387,492) translate(77.81481481481481 44.44444444444444)"/><use xlink:href="#y" transform="matrix(1,0,0,1,458.4250998022387,492) translate(102.50617283950618 44.44444444444444)"/><use xlink:href="#z" transform="matrix(1,0,0,1,458.4250998022387,492) translate(42.135802469135804 71.11111111111111)"/><path d="M526.43 582.5v35.82c0 .1.08.18.18.18.1 0 .2.08.2.18V637" stroke="#000" stroke-width="2" fill="none"/><path d="M527.43 582.53h-2v-1.03h2z"/><path d="M526.8 652.26L522.14 638h9.27z" stroke="#000" stroke-width="2"/><path d="M887.43 920h-2v-4.6h2zm0-25.93h-2v-22.1h2z"/><path d="M887.43 870.98V872h-2v-1.03zM886.43 935.26L881.8 921h9.26z"/><path d="M886.43 938.5L880.4 920h12.04zm-3.26-16.5l3.26 10.03 3.25-10.03z"/><use xlink:href="#p" transform="matrix(1,0,0,1,871.1164578907233,894.0721185640085) translate(0 14.222222222222223)"/><path d="M806.43 946c0-3.3 2.68-6 6-6h148c3.3 0 6 2.7 6 6v60c0 3.3-2.7 6-6 6h-148c-3.32 0-6-2.7-6-6z" stroke="#000" stroke-width="3" fill="#fff"/><use xlink:href="#A" transform="matrix(1,0,0,1,818.4250998660319,952) translate(20.5 17.77777777777778)"/><use xlink:href="#q" transform="matrix(1,0,0,1,818.4250998660319,952) translate(84.6358024691358 17.77777777777778)"/><use xlink:href="#r" transform="matrix(1,0,0,1,818.4250998660319,952) translate(23.617283950617278 44.44444444444444)"/><use xlink:href="#B" transform="matrix(1,0,0,1,818.4250998660319,952) translate(70.4074074074074 44.44444444444444)"/><use xlink:href="#C" transform="matrix(1,0,0,1,818.4250998660319,952) translate(100.03703703703704 44.44444444444444)"/><path d="M886.43 1014.5v21.32c0 .1.08.18.18.18.1 0 .2.08.2.18v3.82" stroke="#000" stroke-width="2" fill="none"/><path d="M887.43 1014.53h-2v-1.03h2z"/><path d="M886.8 1055.26l-4.65-14.26h9.27z" stroke="#000" stroke-width="2"/><path d="M803.67 1066c0-3.3 2.68-6 6-6H963.9c3.32 0 6 2.7 6 6v60c0 3.3-2.68 6-6 6H809.68c-3.32 0-6-2.7-6-6z" stroke="#000" stroke-width="3" fill="#fff"/><use xlink:href="#D" transform="matrix(1,0,0,1,815.6654877590528,1072) translate(10.41975308641976 17.77777777777778)"/><use xlink:href="#q" transform="matrix(1,0,0,1,815.6654877590528,1072) translate(101.71604938271605 17.77777777777778)"/><use xlink:href="#E" transform="matrix(1,0,0,1,815.6654877590528,1072) translate(3.0432098765432016 44.44444444444444)"/><use xlink:href="#r" transform="matrix(1,0,0,1,815.6654877590528,1072) translate(51.191358024691354 44.44444444444444)"/><use xlink:href="#F" transform="matrix(1,0,0,1,815.6654877590528,1072) translate(97.98148148148148 44.44444444444444)"/><use xlink:href="#o" transform="matrix(1,0,0,1,815.6654877590528,1072) translate(127.61111111111111 44.44444444444444)"/><path d="M886.8 1134.5v21.32c0 .1-.1.18-.2.18s-.17.08-.17.18v3.82" stroke="#000" stroke-width="2" fill="none"/><path d="M887.8 1134.53h-2v-1.03h2z"/><path d="M886.43 1175.26L881.8 1161h9.26z" stroke="#000" stroke-width="2"/><path d="M803.3 1186c0-3.3 2.7-6 6-6h154.25c3.3 0 6 2.7 6 6v60c0 3.3-2.7 6-6 6H809.3c-3.3 0-6-2.7-6-6z" stroke="#000" stroke-width="3" fill="#fff"/><use xlink:href="#G" transform="matrix(1,0,0,1,815.3031374624109,1192) translate(16.65432098765433 17.77777777777778)"/><use xlink:href="#q" transform="matrix(1,0,0,1,815.3031374624109,1192) translate(95.48148148148148 17.77777777777778)"/><use xlink:href="#H" transform="matrix(1,0,0,1,815.3031374624109,1192) translate(2.425925925925924 44.44444444444444)"/><use xlink:href="#I" transform="matrix(1,0,0,1,815.3031374624109,1192) translate(88.84567901234568 44.44444444444444)"/><path d="M886.43 1254.5v5.5" stroke="#000" stroke-width="2" fill="none"/><path d="M887.43 1254.53h-2v-1.03h2z"/><path d="M886.43 1275.26L881.8 1261h9.26z" stroke="#000" stroke-width="2"/><path d="M806.43 1286c0-3.3 2.68-6 6-6h148c3.3 0 6 2.7 6 6v28c0 3.3-2.7 6-6 6h-148c-3.32 0-6-2.7-6-6z" stroke="#000" stroke-width="3" fill="#fff"/><use xlink:href="#J" transform="matrix(1,0,0,1,818.4250999082986,1292) translate(58.21604938271605 17.77777777777778)"/><path d="M803.93 1300H747.6c-3.3 0-6-2.7-6-6V627.54c0-3.32 2.7-6 6-6h15.5" stroke="#000" stroke-width="2" fill="none"/><path d="M804.93 1301h-1.03v-2h1.03z"/><path d="M778.37 621.54l-14.26 4.63v-9.27z" stroke="#000" stroke-width="2"/><path d="M1182.73 621.46l2.53 2.53.92 3.4v44.14h-2v-43.87l-.72-2.64-1.77-1.78-2.65-.7h-86.53v-2h86.8zm-189.76 1.08v-2h75.95v2z"/><path d="M993 622.54h-.93l-.2-2h1.12zM1185.18 686.8l-4.64-14.26h9.27z"/><path d="M1185.18 690.04l-6-18.5h12zm-3.26-16.5l3.26 10.02 3.26-10.02z"/><use xlink:href="#K" transform="matrix(1,0,0,1,1068.918513810633,610.8703372561105) translate(0 14.222222222222223)"/><path d="M1105.18 697.54c0-3.32 2.7-6 6-6h148c3.3 0 6 2.68 6 6v28c0 3.3-2.7 6-6 6h-148c-3.3 0-6-2.7-6-6z" stroke="#000" stroke-width="3" fill="#fff"/><use xlink:href="#L" transform="matrix(1,0,0,1,1117.179505262341,703.5370039227771) translate(52.907407407407405 17.77777777777778)"/><path d="M1185.18 734.04v24.94" stroke="#000" stroke-width="2" fill="none"/><path d="M1186.18 734.06h-2v-1.02h2z"/><path d="M1185.18 774.25l-4.64-14.27h9.27z" stroke="#000" stroke-width="2"/><path d="M1180.16 780.3c2.77-1.83 7.27-1.83 10.04 0l96.75 63.4c2.77 1.83 2.77 4.77 0 6.6l-96.75 63.4c-2.77 1.83-7.27 1.83-10.04 0l-96.75-63.4c-2.76-1.83-2.76-4.77 0-6.6z" stroke="#000" stroke-width="3" fill="#fff"/><use xlink:href="#g" transform="matrix(1,0,0,1,1083.3920551634606,782) translate(79.37537037037038 34.02777777777778)"/><use xlink:href="#h" transform="matrix(1,0,0,1,1083.3920551634606,782) translate(96.59759259259259 34.02777777777778)"/><use xlink:href="#i" transform="matrix(1,0,0,1,1083.3920551634606,782) translate(107.64697530864197 34.02777777777778)"/><use xlink:href="#j" transform="matrix(1,0,0,1,1083.3920551634606,782) translate(29.25808641975308 60.69444444444445)"/><use xlink:href="#k" transform="matrix(1,0,0,1,1083.3920551634606,782) translate(105.67783950617283 60.69444444444445)"/><use xlink:href="#l" transform="matrix(1,0,0,1,1083.3920551634606,782) translate(155.06055555555554 60.69444444444445)"/><use xlink:href="#m" transform="matrix(1,0,0,1,1083.3920551634606,782) translate(53.27043209876543 87.36111111111111)"/><use xlink:href="#n" transform="matrix(1,0,0,1,1083.3920551634606,782) translate(113.70253086419753 87.36111111111111)"/><use xlink:href="#M" transform="matrix(1,0,0,1,1083.3920551634606,782) translate(138.3938888888889 87.36111111111111)"/><path d="M1185.82 959.06h-2v-1.36h2zm.36-22.7h-2v-18.84h2z"/><path d="M1185.88 916.57l.3-.06v1.04h-2v-1.1zM1184.82 974.32l-4.64-14.26h9.27z"/><path d="M1184.82 977.56l-6-18.5h12zm-3.26-16.5l3.26 10.03 3.26-10.04z"/><use xlink:href="#p" transform="matrix(1,0,0,1,1169.6896881129737,936.370582495683) translate(0 14.222222222222223)"/><path d="M1179.9 980.42c2.7-1.9 7.13-1.9 9.85 0l76.74 53.16c2.72 1.9 2.72 4.95 0 6.84l-76.75 53.16c-2.72 1.9-7.14 1.9-9.86 0l-76.76-53.16c-2.72-1.9-2.72-4.95 0-6.84z" stroke="#000" stroke-width="3" fill="#fff"/><use xlink:href="#g" transform="matrix(1,0,0,1,1103.2108799894015,982) translate(57.46179012345679 45.27777777777778)"/><use xlink:href="#q" transform="matrix(1,0,0,1,1103.2108799894015,982) translate(74.68401234567901 45.27777777777778)"/><use xlink:href="#r" transform="matrix(1,0,0,1,1103.2108799894015,982) translate(41.35685185185185 71.94444444444446)"/><use xlink:href="#s" transform="matrix(1,0,0,1,1103.2108799894015,982) translate(88.14697530864197 71.94444444444446)"/><use xlink:href="#N" transform="matrix(1,0,0,1,1103.2108799894015,982) translate(110.30746913580246 71.94444444444446)"/><path d="M1185.82 1145.46h-2v-4.6h2zm0-25.92h-2v-22.1h2z"/><path d="M1185.82 1096.45v1.02h-2v-1.04zM1184.82 1160.73l-4.64-14.27h9.27z"/><path d="M1184.82 1163.96l-6-18.5h12zm-3.26-16.5l3.26 10.03 3.26-10.04z"/><g><use xlink:href="#p" transform="matrix(1,0,0,1,1169.5085130541838,1119.5351146412315) translate(0 14.222222222222223)"/></g><path d="M1104.82 1171.46c0-3.3 2.68-6 6-6h148c3.3 0 6 2.7 6 6v60c0 3.32-2.7 6-6 6h-148c-3.32 0-6-2.68-6-6z" stroke="#000" stroke-width="3" fill="#fff"/><g><use xlink:href="#A" transform="matrix(1,0,0,1,1116.8171550294924,1177.462996077223) translate(20.5 17.77777777777778)"/><use xlink:href="#q" transform="matrix(1,0,0,1,1116.8171550294924,1177.462996077223) translate(84.6358024691358 17.77777777777778)"/><use xlink:href="#r" transform="matrix(1,0,0,1,1116.8171550294924,1177.462996077223) translate(23.617283950617278 44.44444444444444)"/><use xlink:href="#B" transform="matrix(1,0,0,1,1116.8171550294924,1177.462996077223) translate(70.4074074074074 44.44444444444444)"/><use xlink:href="#C" transform="matrix(1,0,0,1,1116.8171550294924,1177.462996077223) translate(100.03703703703704 44.44444444444444)"/></g><path d="M1184.82 1239.96v21.32c0 .1.08.18.18.18.1 0 .18.08.18.18v3.82" stroke="#000" stroke-width="2" fill="none"/><path d="M1185.82 1240h-2v-1.04h2z"/><path d="M1185.18 1280.73l-4.64-14.27h9.27z" stroke="#000" stroke-width="2"/><path d="M1102.06 1291.46c0-3.3 2.68-6 6-6h154.24c3.32 0 6 2.7 6 6v60c0 3.32-2.68 6-6 6h-154.24c-3.32 0-6-2.68-6-6z" stroke="#000" stroke-width="3" fill="#fff"/><g><use xlink:href="#D" transform="matrix(1,0,0,1,1114.0575429225132,1297.462996077223) translate(10.41975308641976 17.77777777777778)"/><use xlink:href="#q" transform="matrix(1,0,0,1,1114.0575429225132,1297.462996077223) translate(101.71604938271605 17.77777777777778)"/><use xlink:href="#E" transform="matrix(1,0,0,1,1114.0575429225132,1297.462996077223) translate(3.0432098765432016 44.44444444444444)"/><use xlink:href="#r" transform="matrix(1,0,0,1,1114.0575429225132,1297.462996077223) translate(51.191358024691354 44.44444444444444)"/><use xlink:href="#F" transform="matrix(1,0,0,1,1114.0575429225132,1297.462996077223) translate(97.98148148148148 44.44444444444444)"/><use xlink:href="#o" transform="matrix(1,0,0,1,1114.0575429225132,1297.462996077223) translate(127.61111111111111 44.44444444444444)"/></g><path d="M1185.18 1359.96v21.32c0 .1-.08.18-.18.18-.1 0-.18.08-.18.18v3.82" stroke="#000" stroke-width="2" fill="none"/><path d="M1186.18 1360h-2v-1.04h2z"/><path d="M1184.82 1400.73l-4.64-14.27h9.27z" stroke="#000" stroke-width="2"/><path d="M1101.7 1411.46c0-3.3 2.68-6 6-6h154.24c3.3 0 6 2.7 6 6v60c0 3.32-2.7 6-6 6H1107.7c-3.32 0-6-2.68-6-6z" stroke="#000" stroke-width="3" fill="#fff"/><g><use xlink:href="#G" transform="matrix(1,0,0,1,1113.6951926258712,1417.462996077223) translate(16.65432098765433 17.77777777777778)"/><use xlink:href="#q" transform="matrix(1,0,0,1,1113.6951926258712,1417.462996077223) translate(95.48148148148148 17.77777777777778)"/><use xlink:href="#H" transform="matrix(1,0,0,1,1113.6951926258712,1417.462996077223) translate(2.425925925925924 44.44444444444444)"/><use xlink:href="#I" transform="matrix(1,0,0,1,1113.6951926258712,1417.462996077223) translate(88.84567901234568 44.44444444444444)"/></g><path d="M1184.82 1479.96v5.5" stroke="#000" stroke-width="2" fill="none"/><path d="M1185.82 1480h-2v-1.04h2z"/><path d="M1184.82 1500.73l-4.64-14.27h9.27z" stroke="#000" stroke-width="2"/><path d="M1104.82 1511.46c0-3.3 2.68-6 6-6h148c3.3 0 6 2.7 6 6v28c0 3.32-2.7 6-6 6h-148c-3.32 0-6-2.68-6-6z" stroke="#000" stroke-width="3" fill="#fff"/><g><use xlink:href="#O" transform="matrix(1,0,0,1,1116.8171550717589,1517.462996077223) translate(49.23456790123457 17.77777777777778)"/></g><path d="M1102.32 1525.46H1046c-3.3 0-6-2.68-6-6V853c0-3.3 2.7-6 6-6h15.5" stroke="#000" stroke-width="2" fill="none"/><path d="M1103.32 1526.46h-1.03v-2h1.02z"/><path d="M1076.76 847l-14.26 4.64v-9.28z" stroke="#000" stroke-width="2"/><path d="M1417.55 846.92l2.53 2.53.92 3.42v64.46h-2v-64.2l-.7-2.64-1.8-1.8-2.63-.7h-52.6v-2h52.86zm-126.2 1.08v-2h46.33v2z"/><path d="M1291.38 848h-.92l-.2-2h1.12zM1420 932.6l-4.64-14.27h9.28z"/><path d="M1420 935.83l-6-18.5h12zm-3.26-16.5l3.26 10.03 3.26-10.03z"/><g><use xlink:href="#K" transform="matrix(1,0,0,1,1337.6793374926265,836.3333333333334) translate(0 14.222222222222223)"/></g><path d="M1340 943.33c0-3.3 2.7-6 6-6h148c3.3 0 6 2.7 6 6v65.34c0 3.3-2.7 6-6 6h-148c-3.3 0-6-2.7-6-6z" stroke="#000" stroke-width="3" fill="#fff"/><g><use xlink:href="#D" transform="matrix(1,0,0,1,1352,949.3333333333334) translate(6.91975308641976 17.77777777777778)"/><use xlink:href="#q" transform="matrix(1,0,0,1,1352,949.3333333333334) translate(98.21604938271605 17.77777777777778)"/><use xlink:href="#P" transform="matrix(1,0,0,1,1352,949.3333333333334) translate(3.2777777777777715 44.44444444444444)"/><use xlink:href="#r" transform="matrix(1,0,0,1,1352,949.3333333333334) translate(43.956790123456784 44.44444444444444)"/><use xlink:href="#F" transform="matrix(1,0,0,1,1352,949.3333333333334) translate(90.74691358024691 44.44444444444444)"/><use xlink:href="#o" transform="matrix(1,0,0,1,1352,949.3333333333334) translate(120.37654320987654 44.44444444444444)"/></g><path d="M1420 1017.17V1040" stroke="#000" stroke-width="2" fill="none"/><path d="M1421 1017.2h-2v-1.03h2z"/><path d="M1420 1055.26l-4.64-14.26h9.28z" stroke="#000" stroke-width="2"/><path d="M1340 1066c0-3.3 2.7-6 6-6h148c3.3 0 6 2.7 6 6v60c0 3.3-2.7 6-6 6h-148c-3.3 0-6-2.7-6-6z" stroke="#000" stroke-width="3" fill="#fff"/><g><use xlink:href="#G" transform="matrix(1,0,0,1,1352,1072) translate(13.15432098765433 17.77777777777778)"/><use xlink:href="#q" transform="matrix(1,0,0,1,1352,1072) translate(91.98148148148148 17.77777777777778)"/><use xlink:href="#Q" transform="matrix(1,0,0,1,1352,1072) translate(47.691358024691354 44.44444444444444)"/></g><path d="M1420 1134.5v25.5" stroke="#000" stroke-width="2" fill="none"/><path d="M1421 1134.53h-2v-1.03h2z"/><path d="M1420 1175.26l-4.64-14.26h9.28z" stroke="#000" stroke-width="2"/><path d="M1468 1180c17.67 0 32 17.9 32 40s-14.33 40-32 40h-96c-17.67 0-32-17.9-32-40s14.33-40 32-40z" stroke="#000" stroke-width="3" fill="#fff"/><g><use xlink:href="#R" transform="matrix(1,0,0,1,1345,1185) translate(55.24691358024691 39.65277777777778)"/></g><defs><path fill="#fff" d="M169-182c-1-43-94-46-97-3 18 66 151 10 154 114 3 95-165 93-204 36-6-8-10-19-12-30l50-8c3 46 112 56 116 5-17-69-150-10-154-114-4-87 153-88 188-35 5 8 8 18 10 28" id="S"/><path fill="#fff" d="M115-3C79 11 28 4 28-45v-112H4v-33h27l15-45h31v45h36v33H77v99c-1 23 16 31 38 25v30" id="T"/><path fill="#fff" d="M133-34C117-15 103 5 69 4 32 3 11-16 11-54c-1-60 55-63 116-61 1-26-3-47-28-47-18 1-26 9-28 27l-52-2c7-38 36-58 82-57s74 22 75 68l1 82c-1 14 12 18 25 15v27c-30 8-71 5-69-32zm-48 3c29 0 43-24 42-57-32 0-66-3-65 30 0 17 8 27 23 27" id="U"/><path fill="#fff" d="M135-150c-39-12-60 13-60 57V0H25l-1-190h47c2 13-1 29 3 40 6-28 27-53 61-41v41" id="V"/><g id="a"><use transform="matrix(0.06172839506172839,0,0,0.06172839506172839,0,0)" xlink:href="#S"/><use transform="matrix(0.06172839506172839,0,0,0.06172839506172839,14.814814814814813,0)" xlink:href="#T"/><use transform="matrix(0.06172839506172839,0,0,0.06172839506172839,22.160493827160494,0)" xlink:href="#U"/><use transform="matrix(0.06172839506172839,0,0,0.06172839506172839,34.50617283950617,0)" xlink:href="#V"/><use transform="matrix(0.06172839506172839,0,0,0.06172839506172839,43.148148148148145,0)" xlink:href="#T"/></g><path d="M185-189c-5-48-123-54-124 2 14 75 158 14 163 119 3 78-121 87-175 55-17-10-28-26-33-46l33-7c5 56 141 63 141-1 0-78-155-14-162-118-5-82 145-84 179-34 5 7 8 16 11 25" id="W"/><path d="M59-47c-2 24 18 29 38 22v24C64 9 27 4 27-40v-127H5v-23h24l9-43h21v43h35v23H59v120" id="X"/><path d="M100-194c62-1 85 37 85 99 1 63-27 99-86 99S16-35 15-95c0-66 28-99 85-99zM99-20c44 1 53-31 53-75 0-43-8-75-51-75s-53 32-53 75 10 74 51 75" id="Y"/><path d="M115-194c55 1 70 41 70 98S169 2 115 4C84 4 66-9 55-30l1 105H24l-1-265h31l2 30c10-21 28-34 59-34zm-8 174c40 0 45-34 45-75s-6-73-45-74c-42 0-51 32-51 76 0 43 10 73 51 73" id="Z"/><path d="M206 0h-36l-40-164L89 0H53L-1-190h32L70-26l43-164h34l41 164 42-164h31" id="aa"/><path d="M141-36C126-15 110 5 73 4 37 3 15-17 15-53c-1-64 63-63 125-63 3-35-9-54-41-54-24 1-41 7-42 31l-33-3c5-37 33-52 76-52 45 0 72 20 72 64v82c-1 20 7 32 28 27v20c-31 9-61-2-59-35zM48-53c0 20 12 33 32 33 41-3 63-29 60-74-43 2-92-5-92 41" id="ab"/><path d="M96-169c-40 0-48 33-48 73s9 75 48 75c24 0 41-14 43-38l32 2c-6 37-31 61-74 61-59 0-76-41-82-99-10-93 101-131 147-64 4 7 5 14 7 22l-32 3c-4-21-16-35-41-35" id="ac"/><path d="M106-169C34-169 62-67 57 0H25v-261h32l-1 103c12-21 28-36 61-36 89 0 53 116 60 194h-32v-121c2-32-8-49-39-48" id="ad"/><g id="b"><use transform="matrix(0.06172839506172839,0,0,0.06172839506172839,0,0)" xlink:href="#W"/><use transform="matrix(0.06172839506172839,0,0,0.06172839506172839,14.814814814814813,0)" xlink:href="#X"/><use transform="matrix(0.06172839506172839,0,0,0.06172839506172839,20.98765432098765,0)" xlink:href="#Y"/><use transform="matrix(0.06172839506172839,0,0,0.06172839506172839,33.33333333333333,0)" xlink:href="#Z"/><use transform="matrix(0.06172839506172839,0,0,0.06172839506172839,45.679012345679006,0)" xlink:href="#aa"/><use transform="matrix(0.06172839506172839,0,0,0.06172839506172839,61.66666666666666,0)" xlink:href="#ab"/><use transform="matrix(0.06172839506172839,0,0,0.06172839506172839,74.01234567901234,0)" xlink:href="#X"/><use transform="matrix(0.06172839506172839,0,0,0.06172839506172839,80.18518518518518,0)" xlink:href="#ac"/><use transform="matrix(0.06172839506172839,0,0,0.06172839506172839,91.29629629629629,0)" xlink:href="#ad"/></g><path d="M63-220v92h138v28H63V0H30v-248h175v28H63" id="ae"/><path d="M24 0v-261h32V0H24" id="af"/><g id="c"><use transform="matrix(0.06172839506172839,0,0,0.06172839506172839,0,0)" xlink:href="#ae"/><use transform="matrix(0.06172839506172839,0,0,0.06172839506172839,13.518518518518517,0)" xlink:href="#af"/><use transform="matrix(0.06172839506172839,0,0,0.06172839506172839,18.39506172839506,0)" xlink:href="#Y"/><use transform="matrix(0.06172839506172839,0,0,0.06172839506172839,30.74074074074074,0)" xlink:href="#aa"/></g><path d="M27 0v-27h64v-190l-56 39v-29l58-41h29v221h61V0H27" id="ag"/><path d="M101-251c68 0 85 55 85 127S166 4 100 4C33 4 14-52 14-124c0-73 17-127 87-127zm-1 229c47 0 54-49 54-102s-4-102-53-102c-51 0-55 48-55 102 0 53 5 102 54 102" id="ah"/><g id="d"><use transform="matrix(0.06172839506172839,0,0,0.06172839506172839,0,0)" xlink:href="#ag"/><use transform="matrix(0.06172839506172839,0,0,0.06172839506172839,12.345679012345679,0)" xlink:href="#ah"/></g><path d="M210-169c-67 3-38 105-44 169h-31v-121c0-29-5-50-35-48C34-165 62-65 56 0H25l-1-190h30c1 10-1 24 2 32 10-44 99-50 107 0 11-21 27-35 58-36 85-2 47 119 55 194h-31v-121c0-29-5-49-35-48" id="ai"/><path d="M24-231v-30h32v30H24zM24 0v-190h32V0H24" id="aj"/><path d="M135-143c-3-34-86-38-87 0 15 53 115 12 119 90S17 21 10-45l28-5c4 36 97 45 98 0-10-56-113-15-118-90-4-57 82-63 122-42 12 7 21 19 24 35" id="ak"/><path d="M100-194c63 0 86 42 84 106H49c0 40 14 67 53 68 26 1 43-12 49-29l28 8c-11 28-37 45-77 45C44 4 14-33 15-96c1-61 26-98 85-98zm52 81c6-60-76-77-97-28-3 7-6 17-6 28h103" id="al"/><path d="M117-194c89-4 53 116 60 194h-32v-121c0-31-8-49-39-48C34-167 62-67 57 0H25l-1-190h30c1 10-1 24 2 32 11-22 29-35 61-36" id="am"/><path d="M85-194c31 0 48 13 60 33l-1-100h32l1 261h-30c-2-10 0-23-3-31C134-8 116 4 85 4 32 4 16-35 15-94c0-66 23-100 70-100zm9 24c-40 0-46 34-46 75 0 40 6 74 45 74 42 0 51-32 51-76 0-42-9-74-50-73" id="an"/><g id="e"><use transform="matrix(0.06172839506172839,0,0,0.06172839506172839,0,0)" xlink:href="#ai"/><use transform="matrix(0.06172839506172839,0,0,0.06172839506172839,18.456790123456788,0)" xlink:href="#aj"/><use transform="matrix(0.06172839506172839,0,0,0.06172839506172839,23.33333333333333,0)" xlink:href="#af"/><use transform="matrix(0.06172839506172839,0,0,0.06172839506172839,28.209876543209873,0)" xlink:href="#af"/><use transform="matrix(0.06172839506172839,0,0,0.06172839506172839,33.08641975308642,0)" xlink:href="#aj"/><use transform="matrix(0.06172839506172839,0,0,0.06172839506172839,37.96296296296296,0)" xlink:href="#ak"/><use transform="matrix(0.06172839506172839,0,0,0.06172839506172839,49.074074074074076,0)" xlink:href="#al"/><use transform="matrix(0.06172839506172839,0,0,0.06172839506172839,61.41975308641975,0)" xlink:href="#ac"/><use transform="matrix(0.06172839506172839,0,0,0.06172839506172839,72.53086419753086,0)" xlink:href="#Y"/><use transform="matrix(0.06172839506172839,0,0,0.06172839506172839,84.87654320987654,0)" xlink:href="#am"/><use transform="matrix(0.06172839506172839,0,0,0.06172839506172839,97.22222222222223,0)" xlink:href="#an"/><use transform="matrix(0.06172839506172839,0,0,0.06172839506172839,109.56790123456791,0)" xlink:href="#ak"/></g><path d="M18-150v-26h174v26H18zm0 90v-26h174v26H18" id="ao"/><path d="M64 0c3-98 48-159 88-221H18v-27h164v26C143-157 98-101 97 0H64" id="ap"/><g id="f"><use transform="matrix(0.06172839506172839,0,0,0.06172839506172839,0,0)" xlink:href="#aj"/><use transform="matrix(0.06172839506172839,0,0,0.06172839506172839,4.876543209876543,0)" xlink:href="#ao"/><use transform="matrix(0.06172839506172839,0,0,0.06172839506172839,17.839506172839506,0)" xlink:href="#ap"/></g><path d="M101-234c-31-9-42 10-38 44h38v23H63V0H32v-167H5v-23h27c-7-52 17-82 69-68v24" id="aq"/><g id="g"><use transform="matrix(0.06172839506172839,0,0,0.06172839506172839,0,0)" xlink:href="#aj"/><use transform="matrix(0.06172839506172839,0,0,0.06172839506172839,4.876543209876543,0)" xlink:href="#aq"/></g><use transform="matrix(0.06172839506172839,0,0,0.06172839506172839,0,0)" xlink:href="#aj" id="h"/><g id="i"><use transform="matrix(0.06172839506172839,0,0,0.06172839506172839,0,0)" xlink:href="#aj"/><use transform="matrix(0.06172839506172839,0,0,0.06172839506172839,4.876543209876543,0)" xlink:href="#ak"/></g><path d="M177-190C167-65 218 103 67 71c-23-6-38-20-44-43l32-5c15 47 100 32 89-28v-30C133-14 115 1 83 1 29 1 15-40 15-95c0-56 16-97 71-98 29-1 48 16 59 35 1-10 0-23 2-32h30zM94-22c36 0 50-32 50-73 0-42-14-75-50-75-39 0-46 34-46 75s6 73 46 73" id="ar"/><path d="M114-163C36-179 61-72 57 0H25l-1-190h30c1 12-1 29 2 39 6-27 23-49 58-41v29" id="as"/><g id="j"><use transform="matrix(0.06172839506172839,0,0,0.06172839506172839,0,0)" xlink:href="#ar"/><use transform="matrix(0.06172839506172839,0,0,0.06172839506172839,12.345679012345679,0)" xlink:href="#as"/><use transform="matrix(0.06172839506172839,0,0,0.06172839506172839,19.691358024691358,0)" xlink:href="#al"/><use transform="matrix(0.06172839506172839,0,0,0.06172839506172839,32.03703703703704,0)" xlink:href="#ab"/><use transform="matrix(0.06172839506172839,0,0,0.06172839506172839,44.382716049382715,0)" xlink:href="#X"/><use transform="matrix(0.06172839506172839,0,0,0.06172839506172839,50.55555555555556,0)" xlink:href="#al"/><use transform="matrix(0.06172839506172839,0,0,0.06172839506172839,62.901234567901234,0)" xlink:href="#as"/></g><g id="k"><use transform="matrix(0.06172839506172839,0,0,0.06172839506172839,0,0)" xlink:href="#X"/><use transform="matrix(0.06172839506172839,0,0,0.06172839506172839,6.172839506172839,0)" xlink:href="#ad"/><use transform="matrix(0.06172839506172839,0,0,0.06172839506172839,18.51851851851852,0)" xlink:href="#ab"/><use transform="matrix(0.06172839506172839,0,0,0.06172839506172839,30.864197530864196,0)" xlink:href="#am"/></g><g id="l"><use transform="matrix(0.06172839506172839,0,0,0.06172839506172839,0,0)" xlink:href="#Y"/><use transform="matrix(0.06172839506172839,0,0,0.06172839506172839,12.345679012345679,0)" xlink:href="#as"/></g><path d="M145-31C134-9 116 4 85 4 32 4 16-35 15-94c0-59 17-99 70-100 32-1 48 14 60 33 0-11-1-24 2-32h30l-1 268h-32zM93-21c41 0 51-33 51-76s-8-73-50-73c-40 0-46 35-46 75s5 74 45 74" id="at"/><path d="M84 4C-5 8 30-112 23-190h32v120c0 31 7 50 39 49 72-2 45-101 50-169h31l1 190h-30c-1-10 1-25-2-33-11 22-28 36-60 37" id="au"/><g id="m"><use transform="matrix(0.06172839506172839,0,0,0.06172839506172839,0,0)" xlink:href="#al"/><use transform="matrix(0.06172839506172839,0,0,0.06172839506172839,12.345679012345679,0)" xlink:href="#at"/><use transform="matrix(0.06172839506172839,0,0,0.06172839506172839,24.691358024691358,0)" xlink:href="#au"/><use transform="matrix(0.06172839506172839,0,0,0.06172839506172839,37.03703703703704,0)" xlink:href="#ab"/><use transform="matrix(0.06172839506172839,0,0,0.06172839506172839,49.382716049382715,0)" xlink:href="#af"/></g><g id="n"><use transform="matrix(0.06172839506172839,0,0,0.06172839506172839,0,0)" xlink:href="#X"/><use transform="matrix(0.06172839506172839,0,0,0.06172839506172839,6.172839506172839,0)" xlink:href="#Y"/></g><use transform="matrix(0.06172839506172839,0,0,0.06172839506172839,0,0)" xlink:href="#ag" id="o"/><path d="M146-102V0H94v-102L6-248h54l60 105 60-105h54" id="av"/><path d="M185-48c-13 30-37 53-82 52C43 2 14-33 14-96s30-98 90-98c62 0 83 45 84 108H66c0 31 8 55 39 56 18 0 30-7 34-22zm-45-69c5-46-57-63-70-21-2 6-4 13-4 21h74" id="aw"/><path d="M137-138c1-29-70-34-71-4 15 46 118 7 119 86 1 83-164 76-172 9l43-7c4 19 20 25 44 25 33 8 57-30 24-41C81-84 22-81 20-136c-2-80 154-74 161-7" id="ax"/><g id="p"><use transform="matrix(0.04938271604938272,0,0,0.04938271604938272,0,0)" xlink:href="#av"/><use transform="matrix(0.04938271604938272,0,0,0.04938271604938272,10.864197530864198,0)" xlink:href="#aw"/><use transform="matrix(0.04938271604938272,0,0,0.04938271604938272,20.74074074074074,0)" xlink:href="#ax"/></g><g id="q"><use transform="matrix(0.06172839506172839,0,0,0.06172839506172839,0,0)" xlink:href="#X"/><use transform="matrix(0.06172839506172839,0,0,0.06172839506172839,6.172839506172839,0)" xlink:href="#ad"/><use transform="matrix(0.06172839506172839,0,0,0.06172839506172839,18.51851851851852,0)" xlink:href="#al"/></g><g id="r"><use transform="matrix(0.06172839506172839,0,0,0.06172839506172839,0,0)" xlink:href="#an"/><use transform="matrix(0.06172839506172839,0,0,0.06172839506172839,12.345679012345679,0)" xlink:href="#aj"/><use transform="matrix(0.06172839506172839,0,0,0.06172839506172839,17.22222222222222,0)" xlink:href="#ar"/><use transform="matrix(0.06172839506172839,0,0,0.06172839506172839,29.5679012345679,0)" xlink:href="#aj"/><use transform="matrix(0.06172839506172839,0,0,0.06172839506172839,34.44444444444444,0)" xlink:href="#X"/></g><g id="s"><use transform="matrix(0.06172839506172839,0,0,0.06172839506172839,0,0)" xlink:href="#aj"/><use transform="matrix(0.06172839506172839,0,0,0.06172839506172839,4.876543209876543,0)" xlink:href="#ak"/></g><g id="t"><use transform="matrix(0.06172839506172839,0,0,0.06172839506172839,0,0)" xlink:href="#ag"/><use transform="matrix(0.06172839506172839,0,0,0.06172839506172839,12.345679012345679,0)" xlink:href="#ah"/></g><path d="M33 0v-248h34V0H33" id="ay"/><path d="M9 0v-24l116-142H16v-24h144v24L44-24h123V0H9" id="az"/><g id="u"><use transform="matrix(0.06172839506172839,0,0,0.06172839506172839,0,0)" xlink:href="#ay"/><use transform="matrix(0.06172839506172839,0,0,0.06172839506172839,6.172839506172839,0)" xlink:href="#am"/><use transform="matrix(0.06172839506172839,0,0,0.06172839506172839,18.51851851851852,0)" xlink:href="#aj"/><use transform="matrix(0.06172839506172839,0,0,0.06172839506172839,23.395061728395063,0)" xlink:href="#X"/><use transform="matrix(0.06172839506172839,0,0,0.06172839506172839,29.567901234567902,0)" xlink:href="#aj"/><use transform="matrix(0.06172839506172839,0,0,0.06172839506172839,34.44444444444444,0)" xlink:href="#ab"/><use transform="matrix(0.06172839506172839,0,0,0.06172839506172839,46.79012345679012,0)" xlink:href="#af"/><use transform="matrix(0.06172839506172839,0,0,0.06172839506172839,51.666666666666664,0)" xlink:href="#aj"/><use transform="matrix(0.06172839506172839,0,0,0.06172839506172839,56.54320987654321,0)" xlink:href="#az"/><use transform="matrix(0.06172839506172839,0,0,0.06172839506172839,67.65432098765432,0)" xlink:href="#al"/></g><g id="v"><use transform="matrix(0.06172839506172839,0,0,0.06172839506172839,0,0)" xlink:href="#ab"/><use transform="matrix(0.06172839506172839,0,0,0.06172839506172839,12.345679012345679,0)" xlink:href="#am"/></g><path d="M179-190L93 31C79 59 56 82 12 73V49c39 6 53-20 64-50L1-190h34L92-34l54-156h33" id="aA"/><g id="w"><use transform="matrix(0.06172839506172839,0,0,0.06172839506172839,0,0)" xlink:href="#ab"/><use transform="matrix(0.06172839506172839,0,0,0.06172839506172839,12.345679012345679,0)" xlink:href="#as"/><use transform="matrix(0.06172839506172839,0,0,0.06172839506172839,19.691358024691358,0)" xlink:href="#as"/><use transform="matrix(0.06172839506172839,0,0,0.06172839506172839,27.037037037037038,0)" xlink:href="#ab"/><use transform="matrix(0.06172839506172839,0,0,0.06172839506172839,39.382716049382715,0)" xlink:href="#aA"/></g><g id="x"><use transform="matrix(0.06172839506172839,0,0,0.06172839506172839,0,0)" xlink:href="#Y"/><use transform="matrix(0.06172839506172839,0,0,0.06172839506172839,12.345679012345679,0)" xlink:href="#aq"/></g><path d="M134-131c28 9 52 24 51 62-1 50-34 73-85 73S17-19 16-69c0-36 21-54 49-61-75-25-45-126 34-121 46 3 78 18 79 63 0 33-17 51-44 57zm-34-11c31 1 46-15 46-44 0-28-17-43-47-42-29 0-46 13-45 42 1 28 16 44 46 44zm1 122c35 0 51-18 51-52 0-30-18-46-53-46-33 0-51 17-51 47 0 34 19 51 53 51" id="aB"/><use transform="matrix(0.06172839506172839,0,0,0.06172839506172839,0,0)" xlink:href="#aB" id="y"/><g id="z"><use transform="matrix(0.06172839506172839,0,0,0.06172839506172839,0,0)" xlink:href="#an"/><use transform="matrix(0.06172839506172839,0,0,0.06172839506172839,12.345679012345679,0)" xlink:href="#aj"/><use transform="matrix(0.06172839506172839,0,0,0.06172839506172839,17.22222222222222,0)" xlink:href="#ar"/><use transform="matrix(0.06172839506172839,0,0,0.06172839506172839,29.5679012345679,0)" xlink:href="#aj"/><use transform="matrix(0.06172839506172839,0,0,0.06172839506172839,34.44444444444444,0)" xlink:href="#X"/><use transform="matrix(0.06172839506172839,0,0,0.06172839506172839,40.617283950617285,0)" xlink:href="#ak"/></g><path d="M233-177c-1 41-23 64-60 70L243 0h-38l-65-103H63V0H30v-248c88 3 205-21 203 71zM63-129c60-2 137 13 137-47 0-61-80-42-137-45v92" id="aC"/><g id="A"><use transform="matrix(0.06172839506172839,0,0,0.06172839506172839,0,0)" xlink:href="#aC"/><use transform="matrix(0.06172839506172839,0,0,0.06172839506172839,15.987654320987653,0)" xlink:href="#al"/><use transform="matrix(0.06172839506172839,0,0,0.06172839506172839,28.333333333333332,0)" xlink:href="#ak"/><use transform="matrix(0.06172839506172839,0,0,0.06172839506172839,39.44444444444444,0)" xlink:href="#al"/><use transform="matrix(0.06172839506172839,0,0,0.06172839506172839,51.79012345679012,0)" xlink:href="#X"/></g><g id="B"><use transform="matrix(0.06172839506172839,0,0,0.06172839506172839,0,0)" xlink:href="#ab"/><use transform="matrix(0.06172839506172839,0,0,0.06172839506172839,12.345679012345679,0)" xlink:href="#ak"/></g><use transform="matrix(0.06172839506172839,0,0,0.06172839506172839,0,0)" xlink:href="#ah" id="C"/><g id="D"><use transform="matrix(0.06172839506172839,0,0,0.06172839506172839,0,0)" xlink:href="#ay"/><use transform="matrix(0.06172839506172839,0,0,0.06172839506172839,6.172839506172839,0)" xlink:href="#am"/><use transform="matrix(0.06172839506172839,0,0,0.06172839506172839,18.51851851851852,0)" xlink:href="#ac"/><use transform="matrix(0.06172839506172839,0,0,0.06172839506172839,29.62962962962963,0)" xlink:href="#as"/><use transform="matrix(0.06172839506172839,0,0,0.06172839506172839,36.97530864197531,0)" xlink:href="#al"/><use transform="matrix(0.06172839506172839,0,0,0.06172839506172839,49.32098765432099,0)" xlink:href="#ab"/><use transform="matrix(0.06172839506172839,0,0,0.06172839506172839,61.666666666666664,0)" xlink:href="#ak"/><use transform="matrix(0.06172839506172839,0,0,0.06172839506172839,72.77777777777777,0)" xlink:href="#al"/></g><path d="M141 0L90-78 38 0H4l68-98-65-92h35l48 74 47-74h35l-64 92 68 98h-35" id="aD"/><g id="E"><use transform="matrix(0.06172839506172839,0,0,0.06172839506172839,0,0)" xlink:href="#am"/><use transform="matrix(0.06172839506172839,0,0,0.06172839506172839,12.345679012345679,0)" xlink:href="#al"/><use transform="matrix(0.06172839506172839,0,0,0.06172839506172839,24.691358024691358,0)" xlink:href="#aD"/><use transform="matrix(0.06172839506172839,0,0,0.06172839506172839,35.80246913580247,0)" xlink:href="#X"/></g><path d="M115-194c53 0 69 39 70 98 0 66-23 100-70 100C84 3 66-7 56-30L54 0H23l1-261h32v101c10-23 28-34 59-34zm-8 174c40 0 45-34 45-75 0-40-5-75-45-74-42 0-51 32-51 76 0 43 10 73 51 73" id="aE"/><g id="F"><use transform="matrix(0.06172839506172839,0,0,0.06172839506172839,0,0)" xlink:href="#aE"/><use transform="matrix(0.06172839506172839,0,0,0.06172839506172839,12.345679012345679,0)" xlink:href="#aA"/></g><path d="M30-248c118-7 216 8 213 122C240-48 200 0 122 0H30v-248zM63-27c89 8 146-16 146-99s-60-101-146-95v194" id="aF"/><g id="G"><use transform="matrix(0.06172839506172839,0,0,0.06172839506172839,0,0)" xlink:href="#aF"/><use transform="matrix(0.06172839506172839,0,0,0.06172839506172839,15.987654320987653,0)" xlink:href="#aj"/><use transform="matrix(0.06172839506172839,0,0,0.06172839506172839,20.864197530864196,0)" xlink:href="#ak"/><use transform="matrix(0.06172839506172839,0,0,0.06172839506172839,31.975308641975307,0)" xlink:href="#Z"/><use transform="matrix(0.06172839506172839,0,0,0.06172839506172839,44.32098765432099,0)" xlink:href="#af"/><use transform="matrix(0.06172839506172839,0,0,0.06172839506172839,49.19753086419753,0)" xlink:href="#ab"/><use transform="matrix(0.06172839506172839,0,0,0.06172839506172839,61.54320987654321,0)" xlink:href="#aA"/></g><g id="H"><use transform="matrix(0.06172839506172839,0,0,0.06172839506172839,0,0)" xlink:href="#au"/><use transform="matrix(0.06172839506172839,0,0,0.06172839506172839,12.345679012345679,0)" xlink:href="#Z"/><use transform="matrix(0.06172839506172839,0,0,0.06172839506172839,24.691358024691358,0)" xlink:href="#an"/><use transform="matrix(0.06172839506172839,0,0,0.06172839506172839,37.03703703703704,0)" xlink:href="#ab"/><use transform="matrix(0.06172839506172839,0,0,0.06172839506172839,49.382716049382715,0)" xlink:href="#X"/><use transform="matrix(0.06172839506172839,0,0,0.06172839506172839,55.55555555555556,0)" xlink:href="#al"/><use transform="matrix(0.06172839506172839,0,0,0.06172839506172839,67.90123456790124,0)" xlink:href="#an"/></g><g id="I"><use transform="matrix(0.06172839506172839,0,0,0.06172839506172839,0,0)" xlink:href="#an"/><use transform="matrix(0.06172839506172839,0,0,0.06172839506172839,12.345679012345679,0)" xlink:href="#aj"/><use transform="matrix(0.06172839506172839,0,0,0.06172839506172839,17.22222222222222,0)" xlink:href="#ar"/><use transform="matrix(0.06172839506172839,0,0,0.06172839506172839,29.5679012345679,0)" xlink:href="#aj"/><use transform="matrix(0.06172839506172839,0,0,0.06172839506172839,34.44444444444444,0)" xlink:href="#X"/><use transform="matrix(0.06172839506172839,0,0,0.06172839506172839,40.617283950617285,0)" xlink:href="#ak"/></g><path d="M16-82v-28h88v28H16" id="aG"/><g id="J"><use transform="matrix(0.06172839506172839,0,0,0.06172839506172839,0,0)" xlink:href="#aj"/><use transform="matrix(0.06172839506172839,0,0,0.06172839506172839,4.876543209876543,0)" xlink:href="#aG"/><use transform="matrix(0.06172839506172839,0,0,0.06172839506172839,12.222222222222221,0)" xlink:href="#aG"/></g><path d="M175 0L67-191c6 58 2 128 3 191H24v-248h59L193-55c-6-58-2-129-3-193h46V0h-61" id="aH"/><path d="M110-194c64 0 96 36 96 99 0 64-35 99-97 99-61 0-95-36-95-99 0-62 34-99 96-99zm-1 164c35 0 45-28 45-65 0-40-10-65-43-65-34 0-45 26-45 65 0 36 10 65 43 65" id="aI"/><g id="K"><use transform="matrix(0.04938271604938272,0,0,0.04938271604938272,0,0)" xlink:href="#aH"/><use transform="matrix(0.04938271604938272,0,0,0.04938271604938272,12.790123456790125,0)" xlink:href="#aI"/></g><path d="M155-56V0h-30v-56H8v-25l114-167h33v167h35v25h-35zm-30-156c-27 46-58 90-88 131h88v-131" id="aJ"/><g id="L"><use transform="matrix(0.06172839506172839,0,0,0.06172839506172839,0,0)" xlink:href="#aj"/><use transform="matrix(0.06172839506172839,0,0,0.06172839506172839,4.876543209876543,0)" xlink:href="#ao"/><use transform="matrix(0.06172839506172839,0,0,0.06172839506172839,17.839506172839506,0)" xlink:href="#aJ"/></g><path d="M101-251c82-7 93 87 43 132L82-64C71-53 59-42 53-27h129V0H18c2-99 128-94 128-182 0-28-16-43-45-43s-46 15-49 41l-32-3c6-41 34-60 81-64" id="aK"/><use transform="matrix(0.06172839506172839,0,0,0.06172839506172839,0,0)" xlink:href="#aK" id="M"/><path d="M110-160c48 1 74 30 74 79 0 53-28 85-80 85-65 0-83-55-86-122-5-90 50-162 133-122 14 7 22 21 27 39l-31 6c-5-40-67-38-82-6-9 19-15 44-15 74 11-20 30-34 60-33zm-7 138c34 0 49-23 49-58s-16-56-50-56c-29 0-50 16-49 49 1 36 15 65 50 65" id="aL"/><use transform="matrix(0.06172839506172839,0,0,0.06172839506172839,0,0)" xlink:href="#aL" id="N"/><g id="O"><use transform="matrix(0.06172839506172839,0,0,0.06172839506172839,0,0)" xlink:href="#aj"/><use transform="matrix(0.06172839506172839,0,0,0.06172839506172839,4.876543209876543,0)" xlink:href="#aG"/><use transform="matrix(0.06172839506172839,0,0,0.06172839506172839,12.222222222222221,0)" xlink:href="#ao"/><use transform="matrix(0.06172839506172839,0,0,0.06172839506172839,25.185185185185183,0)" xlink:href="#aK"/></g><g id="P"><use transform="matrix(0.06172839506172839,0,0,0.06172839506172839,0,0)" xlink:href="#af"/><use transform="matrix(0.06172839506172839,0,0,0.06172839506172839,4.876543209876543,0)" xlink:href="#ab"/><use transform="matrix(0.06172839506172839,0,0,0.06172839506172839,17.22222222222222,0)" xlink:href="#ak"/><use transform="matrix(0.06172839506172839,0,0,0.06172839506172839,28.333333333333332,0)" xlink:href="#X"/></g><g id="Q"><use transform="matrix(0.06172839506172839,0,0,0.06172839506172839,0,0)" xlink:href="#an"/><use transform="matrix(0.06172839506172839,0,0,0.06172839506172839,12.345679012345679,0)" xlink:href="#aj"/><use transform="matrix(0.06172839506172839,0,0,0.06172839506172839,17.22222222222222,0)" xlink:href="#ar"/><use transform="matrix(0.06172839506172839,0,0,0.06172839506172839,29.5679012345679,0)" xlink:href="#aj"/><use transform="matrix(0.06172839506172839,0,0,0.06172839506172839,34.44444444444444,0)" xlink:href="#X"/></g><path d="M30 0v-248h187v28H63v79h144v27H63v87h162V0H30" id="aM"/><g id="R"><use transform="matrix(0.06172839506172839,0,0,0.06172839506172839,0,0)" xlink:href="#aM"/><use transform="matrix(0.06172839506172839,0,0,0.06172839506172839,14.814814814814813,0)" xlink:href="#am"/><use transform="matrix(0.06172839506172839,0,0,0.06172839506172839,27.160493827160494,0)" xlink:href="#an"/></g></defs></g></svg>